<?xml version="1.0" encoding="UTF-8" standalone="no"?>
<!-- Created with Inkscape (http://www.inkscape.org/) -->
<svg
   xmlns:svg="http://www.w3.org/2000/svg"
   xmlns="http://www.w3.org/2000/svg"
   version="1.0"
   width="800"
   height="1000"
   id="svg2">
  <defs
     id="defs4">
    <clipPath
       id="clipPath3949">
      <rect
         width="797.00006"
         height="997.00006"
         x="1.5000001"
         y="1.4999388"
         style="opacity:1;fill:#e47872;fill-opacity:0;fill-rule:evenodd;stroke:#000000;stroke-width:3.00000024;stroke-linecap:square;stroke-linejoin:miter;stroke-miterlimit:4;stroke-dasharray:none;stroke-dashoffset:0;stroke-opacity:1"
         id="rect3951" />
    </clipPath>
  </defs>
  <g
     style="opacity:1;display:inline"
     id="layer1">
    <path
       d="M 92.105519,279.81178 C 89.152337,273.9221 108.12359,252.57934 122.0263,253.63575 C 142.6563,255.20334 156.08423,271.55844 172.69725,272.79147 C 181.58322,273.451 201.94526,271.46443 216.83938,274.9851 C 236.57497,279.65019 256.81388,286.79026 277.27368,292.95135 C 334.8954,310.30307 370.22472,315.5604 430.00906,319.09749 C 488.90878,322.58224 521.80901,335.32432 565.50799,337.0413 C 588.84401,337.9582 605.10081,339.07984 622.75237,353.48474 C 641.12545,368.47843 646.47524,390.4134 644.60552,423.72984 C 643.1436,450.17472 638.83806,460.81391 631.74837,481.24035 C 628.13677,491.6459 624.23898,502.10051 623.68202,511.24035 C 622.91448,523.83588 622.42893,536.09939 614.17223,535.90859 C 606.52671,535.73192 601.7627,532.79617 601.95759,521.74543 C 602.16744,510.38955 606.93489,501.95282 605.52902,487.0413 C 601.55598,444.90086 586.9596,411.56533 574.44707,393.39808 C 562.21819,375.64265 545.53726,366.00321 526.17767,361.27625 C 499.4262,354.74443 483.66192,353.29863 456.12074,351.24035 C 434.15901,349.59905 431.53917,351.77607 409.39631,349.81178 C 387.25346,347.8475 391.89631,346.06178 366.53917,343.38321 C 341.18203,340.70464 331.73364,339.30173 307.96774,339.09749 C 295.32942,338.9802 278.8606,341.41892 271.53917,346.95464 C 258.09093,357.12283 252.99279,369.91044 243.68202,375.52606 C 223.66026,387.60183 210.21128,387.41156 188.2636,388.38321 C 172.43588,389.08392 162.62206,391.41076 160.04932,386.95464 C 158.93078,381.99028 170.28266,361.1616 159.39631,362.31178 C 150.93205,363.20605 148.52057,393.82915 134.69218,413.02606 C 123.92771,427.96956 109.02213,427.41219 100.82488,419.81178 C 89.454604,409.26935 86.282976,397.48545 95.110596,382.66892 C 102.06118,371.00286 107.37826,353.34972 118.68202,338.38321 C 131.56729,321.32275 138.78259,301.28214 123.68202,287.66893 C 114.76782,279.63274 97.160008,289.8922 92.105519,279.81178 z "
       style="fill:#e47872;fill-opacity:1;fill-rule:evenodd;stroke:#000000;stroke-width:3;stroke-linecap:square;stroke-linejoin:miter;stroke-miterlimit:4;stroke-dasharray:none;stroke-dashoffset:0;stroke-opacity:1"
       id="path3143" />
    <path
       d="M 77.89726,671.06089 L 88.91288,671.06089 L 88.91288,673.71714 L 74.10038,673.71714 L 74.10038,671.06089 C 75.29829,669.82131 76.9311,668.15725 78.99882,666.06871 C 81.06652,663.98017 82.36599,662.63382 82.89726,662.02964 C 83.90766,660.89424 84.61339,659.9333 85.01444,659.14683 C 85.41547,658.36039 85.61599,657.58695 85.61601,656.82652 C 85.61599,655.58695 85.1811,654.57654 84.31132,653.79527 C 83.44151,653.01404 82.3087,652.62341 80.91288,652.62339 C 79.92329,652.62341 78.87902,652.79529 77.78007,653.13902 C 76.6811,653.48279 75.50663,654.00362 74.25663,654.70152 L 74.25663,651.51402 C 75.52746,651.00362 76.71496,650.61821 77.81913,650.35777 C 78.92329,650.09737 79.93371,649.96717 80.85038,649.96714 C 83.26704,649.96717 85.19412,650.57133 86.63163,651.77964 C 88.06911,652.988 88.78786,654.60258 88.78788,656.62339 C 88.78786,657.58174 88.60818,658.4906 88.24882,659.34996 C 87.88943,660.20934 87.23578,661.22236 86.28788,662.38902 C 86.02745,662.69111 85.19932,663.56351 83.80351,665.00621 C 82.40766,666.44892 80.43891,668.46715 77.89726,671.06089 L 77.89726,671.06089 z "
       style="fill:#000000;fill-opacity:1"
       id="flowRoot3557" />
    <path
       d="M 20.100082,244.9851 C 9.550217,242.32657 8.391765,220.98728 33.578695,188.61961 C 83.185925,124.86946 133.32953,19.765452 212.56855,-7.310051 L 814.28427,-7.310051 C 815.82366,16.033168 812.05946,690.53845 811.89631,915.52607 C 783.83016,874.35146 768.43966,856.89359 742.61059,784.81178 C 706.3237,683.5451 671.10196,577.22788 666.89631,469.0975 C 664.45358,406.29295 674.03917,392.88514 674.03917,343.38321 C 674.03917,279.67035 639.92913,260.57467 605.46773,249.09749 C 570.61273,237.48922 528.61804,204.51811 526.4061,180.03585 C 523.35792,146.29786 553.07179,114.60708 535.46774,66.240351 C 522.00235,38.141603 474.59834,50.475535 438.32488,44.81178 C 403.82296,39.424635 383.09241,23.781091 364.03917,19.097494 C 315.17895,7.086859 303.2211,18.941356 258.32488,27.668923 C 231.84068,32.817298 191.08787,44.72084 171.18202,61.954637 C 152.10529,78.470609 139.20708,95.967079 115.74144,116.30061 C 92.997779,136.00854 75.385604,171.2333 71.182024,181.95464 C 64.622671,198.68445 54.156047,205.72012 51.355339,230.00613 C 49.926815,242.3934 29.08993,247.2505 20.100082,244.9851 z M 811.1931,937.59203 C 811.1931,937.59203 776.32023,881.83879 772.56221,879.34982 C 760.11674,871.1071 756.23856,877.99429 751.42078,891.00247 C 747.53943,901.48225 746.0951,920.53794 752.84935,930.59275 C 762.80115,945.40762 774.385,943.41749 786.94944,955.52967 C 802.24037,970.2702 811.1931,1003.3238 811.1931,1003.3238 L 811.1931,937.59203 z M 605.12198,1016.0982 C 594.62277,998.27907 565.41643,983.29877 555.53785,968.66166 C 499.99812,886.36811 391.06573,873.95747 298.62734,896.94083 C 251.82715,908.57696 182.16511,928.04365 149.54319,911.08296 C 131.04929,901.46766 97.606988,856.61426 97.606988,821.17939 C 97.606988,807.54233 101.26766,793.27958 97.606988,771.68191 C 92.75585,743.0606 65.162883,748.37482 59.134534,732.79104 C 53.811061,719.02943 60.425115,686.35488 73.190012,682.28341 C 83.265862,679.06963 95.465663,682.41054 100.02176,686.53834 C 116.66626,701.61816 120.8075,746.56585 139.56421,744.91286 C 150.28176,743.96835 128.63866,729.23694 135.01852,719.65905 C 140.73214,711.08136 146.06523,707.84921 155.09903,708.54737 C 161.63439,709.05245 163.60002,726.80132 176.644,724.5365 C 199.59607,720.55135 218.17871,698.86521 215.86663,676.47631 C 212.7918,646.70139 188.52389,628.47942 159.51165,626.21994 C 143.53817,624.97592 124.98516,623.60019 124.70779,610.0575 C 124.17338,583.2499 176.98348,575.12058 201.27633,575.12058 C 238.03805,575.12058 301.20976,574.57428 363.73397,579.50783 C 406.49001,582.88154 452.8076,590.12286 480.87322,616.11842 C 521.32139,653.58323 524.83858,693.8603 531.46751,744.40779 C 532.88334,755.20395 537.43422,779.10765 539.46207,793.40019 C 540.90879,803.59691 555.62451,807.54233 558.14989,793.90527 C 560.67527,780.26821 558.31713,763.70487 554.10928,749.45856 C 551.45182,740.46132 545.99377,733.45107 550.19123,731.78088 C 555.13831,729.81242 557.56664,733.538 561.68542,743.39764 C 573.76541,772.315 566.22574,809.9154 568.75649,828.25045 C 571.39158,847.34139 580.18826,860.71239 583.78468,879.1092 C 587.22399,896.70235 596.2605,911.148 603.60675,926.74033 C 616.22211,953.51626 630.62138,967.00673 640.98239,984.31907 C 648.87096,997.50017 666.17529,1016.0983 666.17529,1016.0983 L 605.12198,1016.0982 z "
       style="fill:#e47872;fill-opacity:1;fill-rule:evenodd;stroke:#000000;stroke-width:3;stroke-linecap:square;stroke-linejoin:miter;stroke-miterlimit:4;stroke-dashoffset:0;stroke-opacity:1"
       clip-path="url(#clipPath3949)"
       id="path2170" />
    <path
       d="M 637.25345,975.88327 C 635.61136,936.99064 721.16791,927.43649 757.25345,932.31178 C 757.82847,959.85117 650.42286,986.24427 637.25345,975.88327 z "
       style="fill:#ffffff;fill-opacity:0.94117647;fill-rule:evenodd;stroke:#000000;stroke-width:3;stroke-linecap:square;stroke-linejoin:miter;stroke-miterlimit:4;stroke-dasharray:none;stroke-dashoffset:0;stroke-opacity:1"
       id="path3183" />
    <path
       d="M 152.61059,426.24035 C 142.08297,420.55581 176.97226,357.176 188.32488,361.24035 C 199.405,365.20715 166.04425,433.49405 152.61059,426.24035 z "
       style="fill:#ffffff;fill-opacity:1;fill-rule:evenodd;stroke:#000000;stroke-width:3;stroke-linecap:square;stroke-linejoin:miter;stroke-miterlimit:4;stroke-dasharray:none;stroke-dashoffset:0;stroke-opacity:1"
       id="path3179" />
    <path
       d="M 179.71551,437.91336 C 181.22591,438.23629 182.40559,438.90816 183.25457,439.92898 C 184.10351,440.94983 184.52799,442.21024 184.52801,443.71023 C 184.52799,446.01232 183.73632,447.79357 182.15301,449.05398 C 180.56966,450.3144 178.31966,450.94461 175.40301,450.94461 C 174.42383,450.94461 173.41602,450.84825 172.37957,450.65555 C 171.3431,450.46284 170.27279,450.17377 169.16863,449.78836 L 169.16863,446.74148 C 170.04363,447.2519 171.00196,447.63732 172.04363,447.89773 C 173.08529,448.15815 174.17383,448.28836 175.30926,448.28836 C 177.28841,448.28836 178.79622,447.89774 179.83269,447.11648 C 180.86914,446.33524 181.38737,445.19982 181.38738,443.71023 C 181.38737,442.33524 180.90559,441.25972 179.94207,440.48367 C 178.97851,439.70764 177.63737,439.31962 175.91863,439.31961 L 173.19988,439.31961 L 173.19988,436.72586 L 176.04363,436.72586 C 177.5957,436.72587 178.7832,436.41598 179.60613,435.79617 C 180.42903,435.17639 180.84049,434.28317 180.84051,433.11648 C 180.84049,431.91858 180.41601,430.99932 179.56707,430.35867 C 178.7181,429.71807 177.50195,429.39775 175.91863,429.39773 C 175.05404,429.39775 174.12696,429.4915 173.13738,429.67898 C 172.14779,429.8665 171.05925,430.15817 169.87176,430.55398 L 169.87176,427.74148 C 171.06967,427.40817 172.19206,427.15817 173.23894,426.99148 C 174.28581,426.82484 175.27279,426.74151 176.19988,426.74148 C 178.5957,426.74151 180.49153,427.28578 181.88738,428.3743 C 183.2832,429.46286 183.98111,430.93421 183.98113,432.78836 C 183.98111,434.08004 183.61132,435.17119 182.87176,436.0618 C 182.13216,436.95243 181.08007,437.56962 179.71551,437.91336 L 179.71551,437.91336 z "
       style="font-size:32px;fill:#000000;fill-opacity:1"
       id="flowRoot3421" />
    <path
       d="M 66.016845,413.75487 L 71.173095,413.75487 L 71.173095,395.958 L 65.56372,397.083 L 65.56372,394.208 L 71.141845,393.083 L 74.298095,393.083 L 74.298095,413.75487 L 79.454345,413.75487 L 79.454345,416.41112 L 66.016845,416.41112 L 66.016845,413.75487 z "
       style="fill:#000000;fill-opacity:1"
       id="flowRoot3405" />
    <path
       d="M 116.27801,453.89773 L 127.29363,453.89773 L 127.29363,456.55398 L 112.48113,456.55398 L 112.48113,453.89773 C 113.67904,452.65815 115.31186,450.99409 117.37957,448.90555 C 119.44727,446.81701 120.74675,445.47066 121.27801,444.86648 C 122.28841,443.73108 122.99414,442.77014 123.39519,441.98367 C 123.79622,441.19723 123.99674,440.42379 123.99676,439.66336 C 123.99674,438.42379 123.56185,437.41338 122.69207,436.63211 C 121.82227,435.85088 120.68945,435.46025 119.29363,435.46023 C 118.30404,435.46025 117.25977,435.63213 116.16082,435.97586 C 115.06186,436.31963 113.88738,436.84046 112.63738,437.53836 L 112.63738,434.35086 C 113.90821,433.84046 115.09571,433.45505 116.19988,433.19461 C 117.30404,432.93421 118.31446,432.80401 119.23113,432.80398 C 121.64779,432.80401 123.57487,433.40817 125.01238,434.61648 C 126.44987,435.82484 127.16861,437.43942 127.16863,439.46023 C 127.16861,440.41858 126.98893,441.32744 126.62957,442.1868 C 126.27018,443.04618 125.61653,444.0592 124.66863,445.22586 C 124.4082,445.52795 123.58008,446.40035 122.18426,447.84305 C 120.78841,449.28576 118.81966,451.30399 116.27801,453.89773 L 116.27801,453.89773 z "
       style="fill:#000000;fill-opacity:1"
       id="flowRoot3413" />
    <path
       d="M 255.01692,379.66811 L 267.40754,379.66811 L 267.40754,382.32436 L 257.90754,382.32436 L 257.90754,388.04311 C 258.36587,387.88687 258.8242,387.76969 259.28254,387.69155 C 259.74087,387.61344 260.1992,387.57437 260.65754,387.57436 C 263.26169,387.57437 265.32419,388.28791 266.84504,389.71498 C 268.36586,391.14208 269.12627,393.07437 269.12629,395.51186 C 269.12627,398.02228 268.34502,399.9728 266.78254,401.36342 C 265.22003,402.75405 263.0169,403.44936 260.17317,403.44936 C 259.19399,403.44936 258.1966,403.36602 257.18098,403.19936 C 256.16535,403.03269 255.11587,402.78269 254.03254,402.44936 L 254.03254,399.27748 C 254.97004,399.7879 255.93879,400.16811 256.93879,400.41811 C 257.93878,400.66811 258.99607,400.79311 260.11067,400.79311 C 261.91274,400.79311 263.33982,400.31915 264.39192,399.37123 C 265.44398,398.42332 265.97003,397.13686 265.97004,395.51186 C 265.97003,393.88687 265.44398,392.60041 264.39192,391.65248 C 263.33982,390.70458 261.91274,390.23062 260.11067,390.23061 C 259.26691,390.23062 258.42576,390.32437 257.58723,390.51186 C 256.74868,390.69937 255.89191,390.99104 255.01692,391.38686 L 255.01692,379.66811 z "
       style="fill:#000000;fill-opacity:1"
       id="flowRoot3437" />
    <path
       d="M 225.27174,396.58055 L 217.30299,409.03367 L 225.27174,409.03367 L 225.27174,396.58055 z M 224.44362,393.83055 L 228.41237,393.83055 L 228.41237,409.03367 L 231.74049,409.03367 L 231.74049,411.65867 L 228.41237,411.65867 L 228.41237,417.15867 L 225.27174,417.15867 L 225.27174,411.65867 L 214.74049,411.65867 L 214.74049,408.6118 L 224.44362,393.83055 z "
       style="fill:#000000;fill-opacity:1"
       id="path4175" />
    <path
       d="M 308.59331,361.8104 C 307.17663,361.81041 306.05424,362.29479 305.22612,363.26352 C 304.39799,364.23228 303.98393,365.56041 303.98394,367.2479 C 303.98393,368.92499 304.39799,370.25051 305.22612,371.22446 C 306.05424,372.19842 307.17663,372.6854 308.59331,372.6854 C 310.00996,372.6854 311.13236,372.19842 311.9605,371.22446 C 312.78861,370.25051 313.20267,368.92499 313.20269,367.2479 C 313.20267,365.56041 312.78861,364.23228 311.9605,363.26352 C 311.13236,362.29479 310.00996,361.81041 308.59331,361.8104 L 308.59331,361.8104 z M 314.85894,351.91977 L 314.85894,354.79477 C 314.06725,354.41979 313.26777,354.13334 312.4605,353.9354 C 311.65319,353.7375 310.85371,353.63854 310.06206,353.63852 C 307.97872,353.63854 306.38757,354.34167 305.28862,355.7479 C 304.18966,357.15417 303.56205,359.27916 303.40581,362.1229 C 304.02039,361.21666 304.79122,360.52135 305.71831,360.03696 C 306.64538,359.5526 307.66622,359.31041 308.78081,359.3104 C 311.12455,359.31041 312.97611,360.02135 314.3355,361.44321 C 315.69485,362.8651 316.37454,364.79999 316.37456,367.2479 C 316.37454,369.64374 315.66621,371.56561 314.24956,373.01352 C 312.83288,374.46144 310.94746,375.1854 308.59331,375.1854 C 305.89539,375.1854 303.83289,374.15154 302.40581,372.08384 C 300.97872,370.01613 300.26518,367.01874 300.26519,363.09165 C 300.26518,359.40416 301.14018,356.46406 302.89019,354.27134 C 304.64018,352.07865 306.98913,350.9823 309.93706,350.98227 C 310.72871,350.9823 311.52819,351.06042 312.3355,351.21665 C 313.14277,351.37292 313.98392,351.6073 314.85894,351.91977 L 314.85894,351.91977 z "
       style="fill:#000000;fill-opacity:1"
       id="path4171" />
    <path
       d="M 407.73197,363.48537 L 422.73197,363.48537 L 422.73197,364.82912 L 414.26322,386.81349 L 410.96635,386.81349 L 418.9351,366.14162 L 407.73197,366.14162 L 407.73197,363.48537 z "
       style="fill:#000000;fill-opacity:1"
       id="flowRoot3453" />
    <path
       d="M 520.33471,395.95872 C 518.8347,395.95873 517.65501,396.35977 516.79564,397.16184 C 515.93626,397.96394 515.50657,399.0681 515.50658,400.47434 C 515.50657,401.8806 515.93626,402.98476 516.79564,403.78684 C 517.65501,404.58893 518.8347,404.98997 520.33471,404.98997 C 521.83469,404.98997 523.01698,404.58632 523.88158,403.77903 C 524.74615,402.97174 525.17844,401.87018 525.17846,400.47434 C 525.17844,399.0681 524.74875,397.96394 523.88939,397.16184 C 523.03,396.35977 521.84511,395.95873 520.33471,395.95872 L 520.33471,395.95872 z M 517.17846,394.61497 C 515.82428,394.28165 514.7696,393.65144 514.01439,392.72434 C 513.25918,391.79727 512.88158,390.66707 512.88158,389.33372 C 512.88158,387.46915 513.54564,385.9952 514.87377,384.91184 C 516.20189,383.82853 518.0222,383.28687 520.33471,383.28684 C 522.65761,383.28687 524.48052,383.82853 525.80346,384.91184 C 527.12635,385.9952 527.78781,387.46915 527.78783,389.33372 C 527.78781,390.66707 527.41021,391.79727 526.65502,392.72434 C 525.89979,393.65144 524.85032,394.28165 523.50658,394.61497 C 525.0274,394.96915 526.21229,395.66185 527.06127,396.69309 C 527.91021,397.72435 528.33469,398.98477 528.33471,400.47434 C 528.33469,402.73476 527.64458,404.46914 526.26439,405.67747 C 524.88417,406.8858 522.90761,407.48997 520.33471,407.48997 C 517.76178,407.48997 515.78522,406.8858 514.40502,405.67747 C 513.02481,404.46914 512.3347,402.73476 512.33471,400.47434 C 512.3347,398.98477 512.76179,397.72435 513.61596,396.69309 C 514.47012,395.66185 515.65762,394.96915 517.17846,394.61497 L 517.17846,394.61497 z M 516.02221,389.63059 C 516.0222,390.83894 516.3998,391.78165 517.15502,392.45872 C 517.91022,393.13582 518.97011,393.47436 520.33471,393.47434 C 521.68886,393.47436 522.74875,393.13582 523.51439,392.45872 C 524.28,391.78165 524.66282,390.83894 524.66283,389.63059 C 524.66282,388.42228 524.28,387.47957 523.51439,386.80247 C 522.74875,386.12541 521.68886,385.78686 520.33471,385.78684 C 518.97011,385.78686 517.91022,386.12541 517.15502,386.80247 C 516.3998,387.47957 516.0222,388.42228 516.02221,389.63059 L 516.02221,389.63059 z "
       style="fill:#000000;fill-opacity:1"
       id="path4105" />
    <path
       d="M 574.28761,501.52712 L 574.28761,498.65212 C 575.07927,499.02712 575.88135,499.31358 576.69386,499.51149 C 577.50635,499.70941 578.30322,499.80837 579.08448,499.80837 C 581.1678,499.80837 582.75895,499.10785 583.85792,497.70681 C 584.95686,496.30577 585.58447,494.17817 585.74073,491.32399 C 585.13655,492.21984 584.37092,492.90734 583.44386,493.38649 C 582.51676,493.86567 581.49072,494.10525 580.36573,494.10524 C 578.03239,494.10525 576.18604,493.39952 574.82667,491.98806 C 573.46729,490.57661 572.7876,488.64692 572.78761,486.19899 C 572.7876,483.80318 573.49594,481.8813 574.91261,480.43337 C 576.32927,478.98547 578.21468,478.26152 580.56886,478.26149 C 583.26676,478.26152 585.32665,479.29537 586.74854,481.36306 C 588.1704,483.43078 588.88134,486.43338 588.88136,490.37087 C 588.88134,494.04796 588.00894,496.98285 586.26417,499.17556 C 584.51936,501.36826 582.17301,502.46462 579.22511,502.46462 C 578.43343,502.46462 577.63135,502.38649 576.81886,502.23024 C 576.00635,502.07399 575.1626,501.83962 574.28761,501.52712 L 574.28761,501.52712 z M 580.56886,491.63649 C 581.98551,491.6365 583.10791,491.15213 583.93604,490.18337 C 584.76415,489.21463 585.17822,487.88651 585.17823,486.19899 C 585.17822,484.52193 584.76415,483.19641 583.93604,482.22243 C 583.10791,481.24849 581.98551,480.76151 580.56886,480.76149 C 579.15218,480.76151 578.02979,481.24849 577.20167,482.22243 C 576.37354,483.19641 575.95947,484.52193 575.95948,486.19899 C 575.95947,487.88651 576.37354,489.21463 577.20167,490.18337 C 578.02979,491.15213 579.15218,491.6365 580.56886,491.63649 L 580.56886,491.63649 z "
       style="fill:#000000;fill-opacity:1"
       id="path4109" />
    <path
       d="M 663.77629,677.14209 L 668.93254,677.14209 L 668.93254,659.34522 L 663.32317,660.47022 L 663.32317,657.59522 L 668.90129,656.47022 L 672.05754,656.47022 L 672.05754,677.14209 L 677.21379,677.14209 L 677.21379,679.79834 L 663.77629,679.79834 L 663.77629,677.14209 z M 690.35442,658.54834 C 688.72941,658.54836 687.50805,659.34784 686.69035,660.94678 C 685.87264,662.54576 685.46378,664.9494 685.46379,668.15772 C 685.46378,671.35564 685.87264,673.75408 686.69035,675.35303 C 687.50805,676.95199 688.72941,677.75147 690.35442,677.75147 C 691.98982,677.75147 693.21638,676.95199 694.0341,675.35303 C 694.8518,673.75408 695.26065,671.35564 695.26067,668.15772 C 695.26065,664.9494 694.8518,662.54576 694.0341,660.94678 C 693.21638,659.34784 691.98982,658.54836 690.35442,658.54834 L 690.35442,658.54834 z M 690.35442,656.04834 C 692.96899,656.04837 694.96638,657.08222 696.3466,659.14991 C 697.72679,661.21763 698.4169,664.22023 698.41692,668.15772 C 698.4169,672.08481 697.72679,675.0822 696.3466,677.14991 C 694.96638,679.21761 692.96899,680.25147 690.35442,680.25147 C 687.73982,680.25147 685.74243,679.21761 684.36223,677.14991 C 682.98202,675.0822 682.29191,672.08481 682.29192,668.15772 C 682.29191,664.22023 682.98202,661.21763 684.36223,659.14991 C 685.74243,657.08222 687.73982,656.04837 690.35442,656.04834 L 690.35442,656.04834 z "
       style="fill:#000000;fill-opacity:1"
       id="path4155" />
    <path
       d="M 669.75598,921.59901 L 674.91223,921.59901 L 674.91223,903.80214 L 669.30286,904.92714 L 669.30286,902.05214 L 674.88098,900.92714 L 678.03723,900.92714 L 678.03723,921.59901 L 683.19348,921.59901 L 683.19348,924.25526 L 669.75598,924.25526 L 669.75598,921.59901 z M 690.13098,921.59901 L 695.28723,921.59901 L 695.28723,903.80214 L 689.67786,904.92714 L 689.67786,902.05214 L 695.25598,900.92714 L 698.41223,900.92714 L 698.41223,921.59901 L 703.56848,921.59901 L 703.56848,924.25526 L 690.13098,924.25526 L 690.13098,921.59901 z "
       style="fill:#000000;fill-opacity:1"
       id="path4159" />
    <path
       d="M 578.84225,778.15735 L 583.9985,778.15735 L 583.9985,760.36048 L 578.38913,761.48548 L 578.38913,758.61048 L 583.96725,757.48548 L 587.1235,757.48548 L 587.1235,778.15735 L 592.27975,778.15735 L 592.27975,780.8136 L 578.84225,780.8136 L 578.84225,778.15735 z M 601.38913,778.15735 L 612.40475,778.15735 L 612.40475,780.8136 L 597.59225,780.8136 L 597.59225,778.15735 C 598.79016,776.91777 600.42297,775.25371 602.49069,773.16517 C 604.55839,771.07663 605.85786,769.73028 606.38913,769.1261 C 607.39953,767.9907 608.10526,767.02976 608.50631,766.24329 C 608.90734,765.45685 609.10786,764.68341 609.10788,763.92298 C 609.10786,762.68341 608.67297,761.673 607.80319,760.89173 C 606.93338,760.1105 605.80057,759.71987 604.40475,759.71985 C 603.41516,759.71987 602.37089,759.89175 601.27194,760.23548 C 600.17297,760.57925 598.9985,761.10008 597.7485,761.79798 L 597.7485,758.61048 C 599.01933,758.10008 600.20683,757.71467 601.311,757.45423 C 602.41516,757.19383 603.42558,757.06363 604.34225,757.0636 C 606.75891,757.06363 608.68599,757.66779 610.1235,758.8761 C 611.56098,760.08446 612.27973,761.69904 612.27975,763.71985 C 612.27973,764.6782 612.10005,765.58706 611.74069,766.44642 C 611.3813,767.3058 610.72765,768.31882 609.77975,769.48548 C 609.51932,769.78757 608.69119,770.65997 607.29538,772.10267 C 605.89953,773.54538 603.93078,775.56361 601.38913,778.15735 L 601.38913,778.15735 z "
       style="fill:#000000;fill-opacity:1"
       id="path4149" />
    <path
       d="M 530.35493,701.38576 L 535.51118,701.38576 L 535.51118,683.58889 L 529.90181,684.71389 L 529.90181,681.83889 L 535.47993,680.71389 L 538.63618,680.71389 L 538.63618,701.38576 L 543.79243,701.38576 L 543.79243,704.04201 L 530.35493,704.04201 L 530.35493,701.38576 z M 559.74556,691.46389 C 561.25596,691.78682 562.43564,692.45869 563.28462,693.47951 C 564.13356,694.50036 564.55804,695.76077 564.55806,697.26076 C 564.55804,699.56285 563.76637,701.3441 562.18306,702.60451 C 560.59971,703.86493 558.34971,704.49514 555.43306,704.49514 C 554.45388,704.49514 553.44607,704.39878 552.40962,704.20608 C 551.37315,704.01337 550.30284,703.7243 549.19868,703.33889 L 549.19868,700.29201 C 550.07368,700.80243 551.03201,701.18785 552.07368,701.44826 C 553.11534,701.70868 554.20388,701.83889 555.33931,701.83889 C 557.31846,701.83889 558.82627,701.44827 559.86274,700.66701 C 560.89919,699.88577 561.41742,698.75035 561.41743,697.26076 C 561.41742,695.88577 560.93564,694.81025 559.97212,694.0342 C 559.00856,693.25817 557.66742,692.87015 555.94868,692.87014 L 553.22993,692.87014 L 553.22993,690.27639 L 556.07368,690.27639 C 557.62575,690.2764 558.81325,689.96651 559.63618,689.3467 C 560.45908,688.72692 560.87054,687.8337 560.87056,686.66701 C 560.87054,685.46911 560.44606,684.54985 559.59712,683.9092 C 558.74815,683.2686 557.532,682.94828 555.94868,682.94826 C 555.08409,682.94828 554.15701,683.04203 553.16743,683.22951 C 552.17784,683.41703 551.0893,683.7087 549.90181,684.10451 L 549.90181,681.29201 C 551.09972,680.9587 552.22211,680.7087 553.26899,680.54201 C 554.31586,680.37537 555.30284,680.29204 556.22993,680.29201 C 558.62575,680.29204 560.52158,680.83631 561.91743,681.92483 C 563.31325,683.01339 564.01116,684.48474 564.01118,686.33889 C 564.01116,687.63057 563.64137,688.72172 562.90181,689.61233 C 562.16221,690.50296 561.11012,691.12015 559.74556,691.46389 L 559.74556,691.46389 z "
       style="fill:#000000;fill-opacity:1"
       id="path4145" />
    <path
       d="M 429.29907,576.10654 L 434.45532,576.10654 L 434.45532,558.30967 L 428.84595,559.43467 L 428.84595,556.55967 L 434.42407,555.43467 L 437.58032,555.43467 L 437.58032,576.10654 L 442.73657,576.10654 L 442.73657,578.76279 L 429.29907,578.76279 L 429.29907,576.10654 z M 457.79907,558.18467 L 449.83032,570.63779 L 457.79907,570.63779 L 457.79907,558.18467 z M 456.97095,555.43467 L 460.9397,555.43467 L 460.9397,570.63779 L 464.26782,570.63779 L 464.26782,573.26279 L 460.9397,573.26279 L 460.9397,578.76279 L 457.79907,578.76279 L 457.79907,573.26279 L 447.26782,573.26279 L 447.26782,570.21592 L 456.97095,555.43467 z "
       style="fill:#000000;fill-opacity:1"
       id="path4141" />
    <path
       d="M 259.59344,561.98471 L 264.74969,561.98471 L 264.74969,544.18784 L 259.14032,545.31284 L 259.14032,542.43784 L 264.71844,541.31284 L 267.87469,541.31284 L 267.87469,561.98471 L 273.03094,561.98471 L 273.03094,564.64096 L 259.59344,564.64096 L 259.59344,561.98471 z M 279.45282,541.31284 L 291.84344,541.31284 L 291.84344,543.96909 L 282.34344,543.96909 L 282.34344,549.68784 C 282.80177,549.5316 283.2601,549.41442 283.71844,549.33628 C 284.17677,549.25817 284.6351,549.2191 285.09344,549.21909 C 287.69759,549.2191 289.76009,549.93264 291.28094,551.35971 C 292.80176,552.78681 293.56217,554.7191 293.56219,557.15659 C 293.56217,559.66701 292.78092,561.61753 291.21844,563.00815 C 289.65593,564.39878 287.4528,565.09409 284.60907,565.09409 C 283.62989,565.09409 282.6325,565.01075 281.61688,564.84409 C 280.60125,564.67742 279.55177,564.42742 278.46844,564.09409 L 278.46844,560.92221 C 279.40594,561.43263 280.37469,561.81284 281.37469,562.06284 C 282.37468,562.31284 283.43197,562.43784 284.54657,562.43784 C 286.34864,562.43784 287.77572,561.96388 288.82782,561.01596 C 289.87988,560.06805 290.40593,558.78159 290.40594,557.15659 C 290.40593,555.5316 289.87988,554.24514 288.82782,553.29721 C 287.77572,552.34931 286.34864,551.87535 284.54657,551.87534 C 283.70281,551.87535 282.86166,551.9691 282.02313,552.15659 C 281.18458,552.3441 280.32781,552.63577 279.45282,553.03159 L 279.45282,541.31284 z "
       style="fill:#000000;fill-opacity:1"
       id="path4135" />
    <path
       d="M 122.233,576.12685 L 127.38925,576.12685 L 127.38925,558.32998 L 121.77988,559.45498 L 121.77988,556.57998 L 127.358,555.45498 L 130.51425,555.45498 L 130.51425,576.12685 L 135.6705,576.12685 L 135.6705,578.7831 L 122.233,578.7831 L 122.233,576.12685 z M 149.20175,565.86123 C 147.78507,565.86124 146.66268,566.34562 145.83456,567.31435 C 145.00643,568.28311 144.59237,569.61124 144.59238,571.29873 C 144.59237,572.97582 145.00643,574.30134 145.83456,575.27529 C 146.66268,576.24925 147.78507,576.73623 149.20175,576.73623 C 150.6184,576.73623 151.7408,576.24925 152.56894,575.27529 C 153.39705,574.30134 153.81111,572.97582 153.81113,571.29873 C 153.81111,569.61124 153.39705,568.28311 152.56894,567.31435 C 151.7408,566.34562 150.6184,565.86124 149.20175,565.86123 L 149.20175,565.86123 z M 155.46738,555.9706 L 155.46738,558.8456 C 154.67569,558.47062 153.87621,558.18417 153.06894,557.98623 C 152.26163,557.78833 151.46215,557.68937 150.6705,557.68935 C 148.58716,557.68937 146.99601,558.3925 145.89706,559.79873 C 144.7981,561.205 144.17049,563.32999 144.01425,566.17373 C 144.62883,565.26749 145.39966,564.57218 146.32675,564.08779 C 147.25382,563.60343 148.27466,563.36124 149.38925,563.36123 C 151.73299,563.36124 153.58455,564.07218 154.94394,565.49404 C 156.30329,566.91593 156.98298,568.85082 156.983,571.29873 C 156.98298,573.69457 156.27465,575.61644 154.858,577.06435 C 153.44132,578.51227 151.5559,579.23623 149.20175,579.23623 C 146.50383,579.23623 144.44133,578.20237 143.01425,576.13467 C 141.58716,574.06696 140.87362,571.06957 140.87363,567.14248 C 140.87362,563.45499 141.74862,560.51489 143.49863,558.32217 C 145.24862,556.12948 147.59757,555.03313 150.5455,555.0331 C 151.33715,555.03313 152.13663,555.11125 152.94394,555.26748 C 153.75121,555.42375 154.59236,555.65813 155.46738,555.9706 L 155.46738,555.9706 z "
       style="fill:#000000;fill-opacity:1"
       id="path4131" />
    <path
       d="M 85.847211,620.57356 L 91.003461,620.57356 L 91.003461,602.77669 L 85.394091,603.90169 L 85.394091,601.02669 L 90.972211,599.90169 L 94.128461,599.90169 L 94.128461,620.57356 L 99.284711,620.57356 L 99.284711,623.22981 L 85.847211,623.22981 L 85.847211,620.57356 z M 104.87846,599.90169 L 119.87846,599.90169 L 119.87846,601.24544 L 111.40971,623.22981 L 108.11284,623.22981 L 116.08159,602.55794 L 104.87846,602.55794 L 104.87846,599.90169 z "
       style="fill:#000000;fill-opacity:1"
       id="path4125" />
    <path
       d="M 140.39545,654.91875 L 145.5517,654.91875 L 145.5517,637.12188 L 139.94233,638.24688 L 139.94233,635.37188 L 145.52045,634.24688 L 148.6767,634.24688 L 148.6767,654.91875 L 153.83295,654.91875 L 153.83295,657.575 L 140.39545,657.575 L 140.39545,654.91875 z M 166.97358,646.49688 C 165.47357,646.49689 164.29388,646.89793 163.43451,647.7 C 162.57513,648.5021 162.14544,649.60626 162.14545,651.0125 C 162.14544,652.41876 162.57513,653.52292 163.43451,654.325 C 164.29388,655.12709 165.47357,655.52813 166.97358,655.52813 C 168.47356,655.52813 169.65585,655.12448 170.52045,654.31719 C 171.38502,653.5099 171.81731,652.40834 171.81733,651.0125 C 171.81731,649.60626 171.38762,648.5021 170.52826,647.7 C 169.66887,646.89793 168.48398,646.49689 166.97358,646.49688 L 166.97358,646.49688 z M 163.81733,645.15313 C 162.46315,644.81981 161.40847,644.1896 160.65326,643.2625 C 159.89805,642.33543 159.52045,641.20523 159.52045,639.87188 C 159.52045,638.00731 160.18451,636.53336 161.51264,635.45 C 162.84076,634.36669 164.66107,633.82503 166.97358,633.825 C 169.29648,633.82503 171.11939,634.36669 172.44233,635.45 C 173.76522,636.53336 174.42668,638.00731 174.4267,639.87188 C 174.42668,641.20523 174.04908,642.33543 173.29389,643.2625 C 172.53866,644.1896 171.48919,644.81981 170.14545,645.15313 C 171.66627,645.50731 172.85116,646.20001 173.70014,647.23125 C 174.54908,648.26251 174.97356,649.52293 174.97358,651.0125 C 174.97356,653.27292 174.28345,655.0073 172.90326,656.21563 C 171.52304,657.42396 169.54648,658.02813 166.97358,658.02813 C 164.40065,658.02813 162.42409,657.42396 161.04389,656.21563 C 159.66368,655.0073 158.97357,653.27292 158.97358,651.0125 C 158.97357,649.52293 159.40066,648.26251 160.25483,647.23125 C 161.10899,646.20001 162.29649,645.50731 163.81733,645.15313 L 163.81733,645.15313 z M 162.66108,640.16875 C 162.66107,641.3771 163.03867,642.31981 163.79389,642.99688 C 164.54909,643.67398 165.60898,644.01252 166.97358,644.0125 C 168.32773,644.01252 169.38762,643.67398 170.15326,642.99688 C 170.91887,642.31981 171.30169,641.3771 171.3017,640.16875 C 171.30169,638.96044 170.91887,638.01773 170.15326,637.34063 C 169.38762,636.66357 168.32773,636.32502 166.97358,636.325 C 165.60898,636.32502 164.54909,636.66357 163.79389,637.34063 C 163.03867,638.01773 162.66107,638.96044 162.66108,640.16875 L 162.66108,640.16875 z "
       style="fill:#000000;fill-opacity:1"
       id="path4121" />
    <path
       d="M 29.25836,729.67004 L 34.41461,729.67004 L 34.41461,711.87317 L 28.80524,712.99817 L 28.80524,710.12317 L 34.38336,708.99817 L 37.53961,708.99817 L 37.53961,729.67004 L 42.69586,729.67004 L 42.69586,732.32629 L 29.25836,732.32629 L 29.25836,729.67004 z "
       style="fill:#000000;fill-opacity:1"
       id="flowRoot3549" />
    <path
       d="M 158.32488,739.09749 C 169.40663,728.63861 128.64174,663.55049 116.89631,672.66892 C 107.63857,679.85606 149.93567,747.01517 158.32488,739.09749 z "
       style="fill:#ffffff;fill-opacity:1;fill-rule:evenodd;stroke:#000000;stroke-width:3;stroke-linecap:square;stroke-linejoin:miter;stroke-miterlimit:4;stroke-dasharray:none;stroke-dashoffset:0;stroke-opacity:1"
       id="path3181" />
  </g>
</svg>
