<?xml version="1.0" encoding="UTF-8" standalone="no"?>
<svg
   width="400"
   height="350"
   viewBox="0 0 105.83333 92.60417"
   version="1.1"
   id="svg10257"
   inkscape:version="1.1.2 (b8e25be833, 2022-02-05)"
   sodipodi:docname="Vot.svg"
   xmlns:inkscape="http://www.inkscape.org/namespaces/inkscape"
   xmlns:sodipodi="http://sodipodi.sourceforge.net/DTD/sodipodi-0.dtd"
   xmlns="http://www.w3.org/2000/svg"
   xmlns:svg="http://www.w3.org/2000/svg">
  <sodipodi:namedview
     id="namedview10259"
     pagecolor="#505050"
     bordercolor="#eeeeee"
     borderopacity="1"
     inkscape:pageshadow="0"
     inkscape:pageopacity="0"
     inkscape:pagecheckerboard="0"
     inkscape:document-units="mm"
     showgrid="false"
     width="400mm"
     units="px"
     inkscape:zoom="1.2825338"
     inkscape:cx="262.37125"
     inkscape:cy="187.51942"
     inkscape:window-width="1280"
     inkscape:window-height="738"
     inkscape:window-x="-6"
     inkscape:window-y="-6"
     inkscape:window-maximized="1"
     inkscape:current-layer="layer1"
     inkscape:snap-global="false"
     showguides="true" />
  <defs
     id="defs10254" />
  <g
     inkscape:label="图层 1"
     inkscape:groupmode="layer"
     id="layer1">
    <path
       id="_133993920"
       class="fil0 str0"
       d="M 6.6143667,13.842877 H 35.066599 l 3.724699,2.723436 28.161984,-0.0875 3.745627,2.65594 28.519705,-9.26e-4 M 6.6144457,19.134753 H 35.066679 l 3.724698,-2.723118 28.161985,0.08719 3.745627,-2.65594 28.519705,0.0012"
       inkscape:connector-curvature="0"
       style="clip-rule:evenodd;fill:none;fill-rule:evenodd;stroke:#000000;stroke-width:0.529063;image-rendering:optimizeQuality;shape-rendering:geometricPrecision;text-rendering:geometricPrecision" />
    <polyline
       style="clip-rule:evenodd;fill:none;fill-rule:evenodd;stroke:#000000;stroke-width:1.99961;image-rendering:optimizeQuality;shape-rendering:geometricPrecision;text-rendering:geometricPrecision"
       id="polyline130"
       points="200,45.6509 205,40.6513 210,45.6509 215,40.6513 220,45.6509 225,40.6513 230,45.6509 235,40.6513 240,45.6509 245,40.6513 250,45.6509 255.001,40.6513 260,45.6509 265,40.6513 270.001,45.6509 275,40.6513 280,45.6509 285.001,40.6513 290,45.6509 295,40.6513 300.001,45.6509 305,40.6513 310.001,45.6509 315.001,40.6513 320,45.6509 325.001,40.6513 330.001,45.6509 335,40.6513 340.001,45.6509 345.001,40.6513 350,45.6509 355.001,40.6513 360.001,45.6509 365,40.6513 370.001,45.6509 375.001,40.6513 "
       class="fil0 str0"
       transform="matrix(0.26458333,0,0,0.26458333,-3.1287063e-5,3.6484339e-5)" />
    <g
       aria-label="浊塞音"
       transform="matrix(0.26458333,0,0,0.26458333,-0.12405218,3.6484339e-5)"
       id="text142"
       style="font-weight:bold;font-size:14.6667px;line-height:0%;font-family:'Noto Serif SC';-inkscape-font-specification:'Noto Serif SC Bold';white-space:pre;inline-size:61.3813;clip-rule:evenodd;fill-rule:evenodd;image-rendering:optimizeQuality;shape-rendering:geometricPrecision;text-rendering:geometricPrecision"
       class="fil1 fnt1">
      <path
         d="m 180.12576,17.584805 c 0.66,0.528002 1.48134,1.437337 1.804,2.258672 1.74534,0.821336 2.64001,-2.464005 -1.70133,-2.376005 z m -0.98267,3.226675 c 0.572,0.513334 1.232,1.349336 1.452,2.112004 1.62801,0.938669 2.75734,-2.156005 -1.33467,-2.200005 z m 4.50268,-0.909336 c -2.59601,5.764013 -2.59601,5.764013 -2.90401,6.306681 -0.16133,0.293334 -0.23467,0.308001 -0.44,0.308001 h -0.66 v 0.278667 c 0.308,0.01467 0.54267,0.088 0.748,0.234668 0.352,0.234667 0.41067,1.613337 0.132,3.168007 0.11733,0.542668 0.484,0.748002 0.82133,0.748002 0.70401,0 1.21734,-0.484002 1.24667,-1.24667 0.044,-1.29067 -0.55733,-1.804004 -0.58666,-2.610673 -0.0147,-0.352 0.088,-0.894668 0.22,-1.37867 0.176,-0.792001 1.11467,-4.004009 1.64267,-5.749346 z m 2.03867,5.001345 V 20.85548 h 1.584 v 4.048009 z m 4.89868,-4.048009 v 4.048009 h -1.64267 V 20.85548 Z m -0.82134,5.397345 c 0.33733,0.572002 0.68934,1.261337 0.968,1.980005 l -1.78933,0.146667 v -3.050674 h 1.64267 v 0.748002 h 0.29333 c 0.85067,0 1.39334,-0.308001 1.39334,-0.381334 v -4.722678 c 0.32266,-0.044 0.46933,-0.146667 0.572,-0.278667 l -1.52534,-1.173336 -0.80667,0.924002 h -1.56933 v -2.698673 c 0.352,-0.044 0.45466,-0.190667 0.484,-0.381334 l -2.15601,-0.205334 v 3.285341 h -1.42267 l -1.77467,-0.689335 v 6.644015 h 0.29333 c 0.82134,0 1.32001,-0.278667 1.32001,-0.396001 v -0.674668 h 1.584 v 3.182674 c -1.73067,0.146667 -3.18267,0.234667 -3.97467,0.264001 l 0.71866,2.024005 c 0.16134,-0.02933 0.33734,-0.161334 0.44001,-0.337335 2.83067,-0.748001 4.89867,-1.334669 6.42401,-1.848004 0.23467,0.645335 0.41067,1.29067 0.46933,1.921338 1.68667,1.481337 3.18268,-2.141338 -1.408,-4.35601 z"
         id="path46" />
      <path
         d="m 204.47248,30.051501 h -2.88934 v -1.936005 h 2.59601 c 0.20533,0 0.352,-0.07333 0.396,-0.234667 -0.55734,-0.469334 -1.40801,-1.100002 -1.40801,-1.100002 l -0.77733,0.924002 h -0.80667 v -1.408003 c 0.33734,-0.05867 0.44,-0.190668 0.46934,-0.381335 l -2.20001,-0.190667 v 1.980005 h -2.81601 l 0.11734,0.410667 h 2.69867 v 1.936005 h -5.29468 l 0.11734,0.410667 h 11.92402 c 0.22,0 0.36667,-0.07333 0.41067,-0.234667 -0.616,-0.528001 -1.64267,-1.261336 -1.64267,-1.261336 z m -4.85468,-5.206679 v -1.452003 h 2.03867 v 1.452003 z m 0,-3.15334 h 2.03867 v 1.276003 h -2.03867 z m 7.49469,3.578674 c 0.20533,0 0.36666,-0.07333 0.396,-0.234667 -0.60134,-0.528001 -1.58401,-1.261336 -1.58401,-1.261336 l -0.85066,1.070669 h -1.74534 v -1.452003 h 2.156 c 0.20534,0 0.33734,-0.07333 0.38134,-0.234667 -0.528,-0.469335 -1.36401,-1.11467 -1.36401,-1.11467 l -0.76266,0.924003 h -0.41067 v -1.276003 h 2.34667 c 0.20533,0 0.352,-0.07333 0.396,-0.234668 -0.19067,-0.161333 -0.42533,-0.322667 -0.64533,-0.484001 0.60133,-0.308 1.30533,-0.777335 1.74533,-1.144002 0.29334,-0.02933 0.45467,-0.05867 0.55734,-0.176001 l -1.52534,-1.437336 -0.85067,0.865335 h -4.26801 c 1.04134,-0.205334 1.43734,-1.980005 -1.55467,-1.950671 l -0.10266,0.088 c 0.41066,0.337334 0.71866,0.997336 0.68933,1.59867 0.19067,0.146667 0.38134,0.234668 0.55734,0.264001 h -4.66402 c -0.0587,-0.234667 -0.132,-0.498668 -0.23466,-0.762668 h -0.20534 c 0.044,0.733335 -0.49866,1.422669 -0.99733,1.672003 -0.44,0.220001 -0.748,0.601335 -0.60134,1.11467 0.19067,0.528001 0.88001,0.660001 1.34934,0.366667 0.484,-0.293334 0.85067,-0.982669 0.748,-1.965338 h 9.38669 c -0.0733,0.410668 -0.19067,0.909336 -0.29333,1.29067 -0.23467,-0.176001 -0.42534,-0.293334 -0.42534,-0.293334 l -0.73333,0.762668 h -0.67467 v -0.865335 c 0.33733,-0.05867 0.45467,-0.190667 0.46933,-0.381334 l -2.14134,-0.190667 v 1.437336 h -2.03867 v -0.865335 c 0.352,-0.05867 0.45467,-0.190667 0.484,-0.381334 l -2.12667,-0.190667 v 1.437336 h -2.30267 l 0.11733,0.425335 h 2.18534 v 1.276003 h -2.12667 l 0.11733,0.425334 h 2.00934 v 1.452003 h -3.97467 l 0.11733,0.425334 h 3.53468 c -0.80667,1.24667 -2.33201,2.522673 -3.91601,3.329341 l 0.10266,0.190668 c 2.21468,-0.674669 4.42935,-1.862671 5.72002,-3.520009 h 3.256 c 0.77734,1.481337 2.18534,2.58134 3.78401,3.300008 0.16134,-0.762668 0.54267,-1.276003 1.12934,-1.437337 l 0.0147,-0.161333 c -1.54001,-0.249334 -3.37335,-0.836002 -4.47335,-1.701338 z"
         id="path48" />
      <path
         d="m 212.90583,29.362166 v -2.024005 h 5.00135 v 2.024005 z m 5.00135,-4.385344 v 1.950672 h -5.00135 v -1.950672 z m -0.16134,-0.410667 h -4.73734 l -1.83334,-0.748002 v 7.06935 h 0.24934 c 0.73333,0 1.48133,-0.381334 1.48133,-0.557335 v -0.557335 h 5.00135 v 1.041336 h 0.29333 c 0.66,0 1.51067,-0.440001 1.52534,-0.572001 v -4.957345 c 0.29333,-0.07333 0.49867,-0.205334 0.60133,-0.322667 l -1.73067,-1.33467 z m 1.67201,-1.921338 h -2.78667 c 0.88,-0.674668 1.848,-1.525337 2.43467,-2.170672 0.32267,0.044 0.49867,-0.07333 0.55733,-0.249333 l -1.96534,-0.616002 h 3.52001 c 0.20534,0 0.36667,-0.07333 0.396,-0.234667 -0.63066,-0.572001 -1.70133,-1.408003 -1.70133,-1.408003 l -0.95334,1.217336 h -3.10934 c 0.98267,-0.249334 1.276,-1.980005 -1.68667,-2.068005 l -0.11733,0.07333 c 0.36666,0.425334 0.80666,1.144002 0.90933,1.804004 0.14667,0.102667 0.29334,0.161333 0.41067,0.190667 h -5.94001 l 0.11733,0.425334 h 2.43467 l -0.0293,0.01467 c 0.396,0.718668 0.77733,1.716004 0.80667,2.625339 1.42267,1.29067 3.09467,-1.46667 -0.484,-2.640006 h 5.07467 c -0.23466,0.909336 -0.63066,2.141338 -1.012,3.036007 h -7.58268 l 0.11733,0.410668 h 12.92136 c 0.20534,0 0.38134,-0.07333 0.41067,-0.234667 -0.64533,-0.586668 -1.76,-1.452004 -1.76,-1.452004 z"
         id="path50" />
    </g>
    <path
       id="_133119552"
       class="fil0 str0"
       d="M 6.6143667,44.543169 H 35.066599 l 3.724699,2.723435 28.161984,-0.0875 3.745627,2.65594 28.519705,-0.0011 m -92.6041683,0.0011 H 35.066679 l 3.724698,-2.723118 28.161985,0.08719 3.745627,-2.65594 28.519705,0.0013"
       inkscape:connector-curvature="0"
       style="clip-rule:evenodd;fill:none;fill-rule:evenodd;stroke:#000000;stroke-width:0.529063;image-rendering:optimizeQuality;shape-rendering:geometricPrecision;text-rendering:geometricPrecision" />
    <polyline
       style="clip-rule:evenodd;fill:none;fill-rule:evenodd;stroke:#000000;stroke-width:1.99961;image-rendering:optimizeQuality;shape-rendering:geometricPrecision;text-rendering:geometricPrecision"
       id="polyline199"
       points="260,161.684 265,156.684 270.001,161.684 275,156.684 280,161.684 285.001,156.684 290,161.684 295,156.684 300.001,161.684 305,156.684 310,161.684 315.001,156.684 320,161.684 325,156.684 330.001,161.684 335,156.684 340,161.684 345.001,156.684 350,161.684 355,156.684 360.001,161.684 365,156.684 370.001,161.684 375.001,156.684 "
       class="fil0 str0"
       transform="matrix(0.26458333,0,0,0.26458333,-3.1287063e-5,3.6484339e-5)" />
    <g
       aria-label="清不送气塞音"
       transform="matrix(0.26458333,0,0,0.26458333,0.93504843,3.6484339e-5)"
       id="text217"
       style="font-weight:bold;font-size:14.6667px;line-height:0%;font-family:'Noto Serif SC';-inkscape-font-specification:'Noto Serif SC Bold';white-space:pre;inline-size:106.836;clip-rule:evenodd;fill-rule:evenodd;image-rendering:optimizeQuality;shape-rendering:geometricPrecision;text-rendering:geometricPrecision"
       class="fil1 fnt1" />
    <path
       id="_133993104"
       class="fil0 str0"
       d="M 6.7121567,75.243302 H 35.164389 l 3.724699,2.723435 28.161984,-0.0875 3.745627,2.65594 28.519705,-0.0011 m -92.6041683,0.0011 H 35.164469 l 3.724698,-2.723118 28.161985,0.08719 3.745627,-2.65594 28.519705,0.0013"
       inkscape:connector-curvature="0"
       style="clip-rule:evenodd;fill:none;fill-rule:evenodd;stroke:#000000;stroke-width:0.529063;image-rendering:optimizeQuality;shape-rendering:geometricPrecision;text-rendering:geometricPrecision" />
    <polyline
       style="clip-rule:evenodd;fill:none;fill-rule:evenodd;stroke:#000000;stroke-width:1.99961;image-rendering:optimizeQuality;shape-rendering:geometricPrecision;text-rendering:geometricPrecision"
       id="polyline294"
       points="310.499,277.716 315.499,272.716 320.5,277.716 325.499,272.716 330.499,277.716 335.5,272.716 340.499,277.716 345.499,272.716 350.5,277.716 355.5,272.716 360.499,277.716 365.5,272.716 370.5,277.716 375.499,272.716 "
       class="fil0 str0"
       transform="matrix(0.26458333,0,0,0.26458333,-3.1287063e-5,3.6484339e-5)" />
    <polyline
       transform="matrix(0.26458333,0,0,0.26458333,-45.101269,0.23339148)"
       style="clip-rule:evenodd;fill:none;fill-rule:evenodd;stroke:#000000;stroke-width:1.99961;image-rendering:optimizeQuality;shape-rendering:geometricPrecision;text-rendering:geometricPrecision"
       id="polyline130-3"
       points="200,45.6509 205,40.6513 210,45.6509 215,40.6513 220,45.6509 225,40.6513 230,45.6509 235,40.6513 240,45.6509 245,40.6513 250,45.6509 255.001,40.6513 260,45.6509 265,40.6513 270.001,45.6509 275,40.6513 280,45.6509 285.001,40.6513 290,45.6509 295,40.6513 300.001,45.6509 305,40.6513 310.001,45.6509 315.001,40.6513 320,45.6509 325.001,40.6513 330.001,45.6509 335,40.6513 340.001,45.6509 345.001,40.6513 350,45.6509 355.001,40.6513 360.001,45.6509 365,40.6513 370.001,45.6509 375.001,40.6513 "
       class="fil0 str0" />
    <polyline
       transform="matrix(0.26458333,0,0,0.26458333,-62.21228,0.02577448)"
       style="clip-rule:evenodd;fill:none;fill-rule:evenodd;stroke:#000000;stroke-width:1.99961;image-rendering:optimizeQuality;shape-rendering:geometricPrecision;text-rendering:geometricPrecision"
       id="polyline199-5"
       points="260,161.684 265,156.684 270.001,161.684 275,156.684 280,161.684 285.001,156.684 290,161.684 295,156.684 300.001,161.684 305,156.684 310,161.684 315.001,156.684 320,161.684 325,156.684 330.001,161.684 335,156.684 340,161.684 345.001,156.684 350,161.684 355,156.684 360.001,161.684 365,156.684 370.001,161.684 375.001,156.684 "
       class="fil0 str0" />
    <polyline
       transform="matrix(0.26458333,0,0,0.26458333,-62.084156,30.629864)"
       style="clip-rule:evenodd;fill:none;fill-rule:evenodd;stroke:#000000;stroke-width:1.99961;image-rendering:optimizeQuality;shape-rendering:geometricPrecision;text-rendering:geometricPrecision"
       id="polyline199-9"
       points="260,161.684 265,156.684 270.001,161.684 275,156.684 280,161.684 285.001,156.684 290,161.684 295,156.684 300.001,161.684 305,156.684 310,161.684 315.001,156.684 320,161.684 325,156.684 330.001,161.684 335,156.684 340,161.684 345.001,156.684 350,161.684 355,156.684 360.001,161.684 365,156.684 370.001,161.684 375.001,156.684 "
       class="fil0 str0" />
    <g
       aria-label="持阻"
       id="text57225"
       style="font-size:3.52777px;line-height:1.25;font-family:'Noto Serif SC';-inkscape-font-specification:'Noto Serif SC';clip-rule:evenodd;fill-rule:evenodd;stroke-width:0.264583;image-rendering:optimizeQuality;shape-rendering:geometricPrecision;text-rendering:geometricPrecision"
       transform="translate(0.96829103)">
      <path
         d="m 49.963031,22.630707 h 0.684388 v 0.532694 h -0.938387 l 0.02822,0.105833 h 2.042579 c 0.04586,0 0.08114,-0.01764 0.09172,-0.05645 -0.116417,-0.109361 -0.306916,-0.261055 -0.306916,-0.261055 l -0.162278,0.211667 h -0.529165 v -0.532694 h 0.723193 c 0.04939,0 0.08467,-0.01764 0.09525,-0.05644 -0.116417,-0.109361 -0.299861,-0.253999 -0.299861,-0.253999 l -0.165805,0.208138 h -0.352777 v -0.412749 c 0.08467,-0.01411 0.119944,-0.04939 0.127,-0.09878 l -0.352777,-0.0388 v 0.550332 h -0.71261 z m -0.03881,0.747888 c -0.194028,0.0635 -0.391583,0.126999 -0.571499,0.183444 v -0.691443 h 0.504471 c 0.04939,0 0.08114,-0.01764 0.09172,-0.05645 -0.102305,-0.102305 -0.26811,-0.246944 -0.26811,-0.246944 l -0.151694,0.197556 H 49.35272 v -0.670277 c 0.08467,-0.01058 0.119944,-0.04586 0.130528,-0.09525 l -0.352777,-0.0388 v 0.804332 h -0.52211 l 0.02469,0.105833 h 0.497416 v 0.75847 c -0.250472,0.07761 -0.458611,0.137583 -0.575027,0.165805 l 0.112889,0.299861 c 0.03528,-0.01411 0.06703,-0.04586 0.07761,-0.09172 0.137583,-0.05997 0.264582,-0.119944 0.384527,-0.176389 v 1.005415 c 0,0.05292 -0.01764,0.07056 -0.07761,0.07056 -0.0635,0 -0.370416,-0.02469 -0.370416,-0.02469 v 0.05997 c 0.137583,0.01764 0.215194,0.04233 0.261055,0.08467 0.04233,0.03175 0.05997,0.09525 0.07055,0.165806 0.303388,-0.03175 0.338666,-0.144639 0.338666,-0.335139 v -1.132414 c 0.232833,-0.112888 0.430388,-0.211666 0.589138,-0.292805 z m 0.09172,0.684387 c 0.148166,0.130527 0.324555,0.359832 0.36336,0.543277 0.268111,0.179916 0.462138,-0.370416 -0.328082,-0.567971 z m 1.411108,-0.292805 H 51.271834 V 23.51265 c 0.07761,-0.01411 0.112889,-0.04233 0.123472,-0.09172 l -0.352777,-0.03881 v 0.388055 h -1.312331 l 0.02822,0.102305 h 1.284108 v 0.966609 c 0,0.05292 -0.01764,0.07056 -0.08467,0.07056 -0.07408,0 -0.472721,-0.02822 -0.472721,-0.02822 v 0.05644 c 0.172861,0.02117 0.264583,0.04939 0.324555,0.08819 0.05292,0.03528 0.07056,0.09525 0.08114,0.165805 0.342194,-0.03175 0.380999,-0.148166 0.380999,-0.338666 v -0.98072 h 0.497416 c 0.04939,0 0.07761,-0.01764 0.08819,-0.05644 -0.102306,-0.105833 -0.278694,-0.250472 -0.278694,-0.250472 z"
         id="path53" />
      <path
         d="m 53.155663,22.020403 -0.151694,0.148166 H 52.555942 L 52.29136,22.055681 v 3.13266 h 0.03881 c 0.112889,0 0.183444,-0.0635 0.183444,-0.08467 v -2.832799 h 0.497416 c -0.08114,0.271638 -0.215194,0.670276 -0.303389,0.88547 0.243417,0.261055 0.328083,0.52211 0.328083,0.761998 0,0.134056 -0.02822,0.208139 -0.09172,0.243416 -0.02822,0.01058 -0.05292,0.01411 -0.09172,0.01411 h -0.250472 v 0.05644 c 0.07761,0.01058 0.144639,0.02822 0.172861,0.05644 0.02822,0.02822 0.04586,0.105833 0.04586,0.183444 0.335138,-0.01058 0.462138,-0.17286 0.45861,-0.497415 0,-0.261055 -0.130527,-0.560916 -0.486832,-0.825499 0.155222,-0.20461 0.370416,-0.59972 0.483304,-0.811387 0.08467,-0.0035 0.130528,-0.01411 0.15875,-0.0388 z m 0.652638,2.084912 h 0.952498 v 0.857248 h -0.952498 z m 0.952498,-1.781524 v 0.761999 h -0.952498 v -0.761999 z m 0,1.679219 h -0.952498 v -0.814915 h 0.952498 z m 0.264582,0.959553 h -0.04233 v -2.599966 c 0.08467,-0.01058 0.134055,-0.02822 0.15875,-0.0635 l -0.303388,-0.236361 -0.116417,0.15875 h -0.874887 l -0.257527,-0.112889 v 2.853966 h -0.599721 l 0.02822,0.09878 h 2.331856 c 0.04586,0 0.07761,-0.01764 0.08819,-0.05292 -0.09878,-0.102305 -0.26811,-0.250471 -0.26811,-0.250471 z"
         id="path55" />
    </g>
    <g
       aria-label="除阻"
       id="text62329"
       style="font-size:3.52777px;line-height:1.25;font-family:'Noto Serif SC';-inkscape-font-specification:'Noto Serif SC';clip-rule:evenodd;fill-rule:evenodd;stroke-width:0.264583;image-rendering:optimizeQuality;shape-rendering:geometricPrecision;text-rendering:geometricPrecision">
      <path
         d="M 67.828183,21.968122 67.676489,22.11276 H 67.26374 L 66.999157,22.0034 v 3.129132 h 0.03528 c 0.112888,0 0.186972,-0.0635 0.186972,-0.08114 v -2.8328 h 0.465665 c -0.08114,0.282222 -0.215194,0.691443 -0.303388,0.913693 0.232833,0.264583 0.306916,0.536221 0.306916,0.779637 0,0.137583 -0.03175,0.215194 -0.09172,0.246944 -0.02822,0.01764 -0.05292,0.02117 -0.09172,0.02117 h -0.236361 v 0.05644 c 0.07761,0.01058 0.148167,0.03175 0.172861,0.05644 0.02469,0.03175 0.04233,0.105833 0.04233,0.179917 0.324555,-0.01411 0.444499,-0.172861 0.440972,-0.504472 0,-0.26811 -0.116417,-0.571498 -0.455083,-0.846664 0.144639,-0.215194 0.363361,-0.620888 0.479777,-0.83961 0.08114,-0.0035 0.130528,-0.01058 0.155222,-0.04233 z m 0.500943,1.968495 c -0.102305,0.306916 -0.328082,0.677332 -0.59972,0.917221 l 0.02822,0.04939 c 0.335138,-0.197555 0.634998,-0.515054 0.776109,-0.793748 0.06703,0.0071 0.102305,0 0.116417,-0.03528 z m 0.984248,0.03175 c 0.186972,0.225778 0.444499,0.589138 0.515055,0.850193 0.261055,0.194027 0.437443,-0.370416 -0.469194,-0.878415 z m 0.271639,-0.377471 h -0.507999 v -0.476249 h 0.557387 c 0.04586,0 0.07761,-0.01764 0.08819,-0.05644 -0.102306,-0.09525 -0.261055,-0.218722 -0.261055,-0.218722 l -0.137583,0.172861 h -1.068915 l 0.02822,0.102305 h 0.571499 v 0.476249 h -0.871359 l 0.02822,0.102305 h 0.843137 v 1.090081 c 0,0.04939 -0.01411,0.0635 -0.07408,0.0635 -0.06703,0 -0.370416,-0.02117 -0.370416,-0.02117 v 0.05292 c 0.144639,0.02117 0.218722,0.04586 0.268111,0.08819 0.0388,0.03175 0.05644,0.09878 0.05997,0.165806 0.29986,-0.03175 0.338666,-0.162278 0.338666,-0.342194 v -1.097137 h 0.874887 c 0.04939,0 0.08114,-0.01764 0.09172,-0.05644 -0.116417,-0.102305 -0.296333,-0.250472 -0.296333,-0.250472 z m -0.779638,-1.69333 c -0.126999,0.423333 -0.606776,0.987776 -1.040692,1.273525 l 0.02822,0.04939 c 0.500944,-0.250471 0.987776,-0.691443 1.220609,-1.132414 0.176388,0.430388 0.536221,0.786693 0.934859,1.015998 0.02117,-0.09172 0.09878,-0.172861 0.194027,-0.197555 l 0.0071,-0.04939 c -0.430388,-0.172861 -0.860776,-0.448027 -1.07597,-0.807859 0.08114,-0.0071 0.116416,-0.0247 0.123472,-0.0635 z"
         id="path58" />
      <path
         d="M 71.401814,21.964594 71.25012,22.11276 H 70.802093 L 70.53751,21.999872 v 3.13266 h 0.03881 c 0.112889,0 0.183444,-0.0635 0.183444,-0.08467 v -2.832799 h 0.497416 c -0.08114,0.271638 -0.215194,0.670276 -0.303389,0.88547 0.243416,0.261055 0.328083,0.52211 0.328083,0.761998 0,0.134056 -0.02822,0.208139 -0.09172,0.243416 -0.02822,0.01058 -0.05292,0.01411 -0.09172,0.01411 h -0.250472 v 0.05644 c 0.07761,0.01058 0.144639,0.02822 0.172861,0.05644 0.02822,0.02822 0.04586,0.105833 0.04586,0.183444 0.335138,-0.01058 0.462138,-0.172861 0.45861,-0.497415 0,-0.261055 -0.130527,-0.560916 -0.486832,-0.825499 0.155222,-0.20461 0.370416,-0.59972 0.483304,-0.811387 0.08467,-0.0035 0.130528,-0.01411 0.15875,-0.0388 z m 0.652638,2.084912 h 0.952498 v 0.857248 h -0.952498 z m 0.952498,-1.781524 v 0.761999 h -0.952498 v -0.761999 z m 0,1.679219 h -0.952498 v -0.814915 h 0.952498 z m 0.264582,0.959553 h -0.04233 v -2.599966 c 0.08467,-0.01058 0.134055,-0.02822 0.15875,-0.0635 l -0.303389,-0.236361 -0.116416,0.15875 H 72.093257 L 71.83573,22.052788 v 2.853966 h -0.599721 l 0.02822,0.09878 h 2.331856 c 0.04586,0 0.07761,-0.01764 0.08819,-0.05292 -0.09878,-0.102305 -0.26811,-0.250471 -0.26811,-0.250471 z"
         id="path60" />
    </g>
    <g
       aria-label="持阻"
       id="text57225-4"
       style="font-size:3.52777px;line-height:1.25;font-family:'Noto Serif SC';-inkscape-font-specification:'Noto Serif SC';clip-rule:evenodd;fill-rule:evenodd;stroke-width:0.264583;image-rendering:optimizeQuality;shape-rendering:geometricPrecision;text-rendering:geometricPrecision"
       transform="translate(0.96831553)">
      <path
         d="m 49.963008,84.28875 h 0.684388 v 0.532693 h -0.938387 l 0.02822,0.105834 h 2.042579 c 0.04586,0 0.08114,-0.01764 0.09172,-0.05645 -0.116416,-0.109361 -0.306916,-0.261055 -0.306916,-0.261055 l -0.162277,0.211666 H 50.873173 V 84.28875 h 0.723193 c 0.04939,0 0.08467,-0.01764 0.09525,-0.05644 -0.116417,-0.109361 -0.299861,-0.254 -0.299861,-0.254 L 51.22595,84.186449 H 50.873173 V 83.7737 c 0.08467,-0.01411 0.119944,-0.04939 0.127,-0.09878 l -0.352777,-0.03881 v 0.550332 h -0.71261 z m -0.03881,0.747887 c -0.194027,0.0635 -0.391583,0.127 -0.571499,0.183444 v -0.691442 h 0.504471 c 0.04939,0 0.08114,-0.01764 0.09172,-0.05644 -0.102305,-0.102305 -0.26811,-0.246944 -0.26811,-0.246944 l -0.151694,0.197555 h -0.176389 v -0.670276 c 0.08467,-0.01058 0.119944,-0.04586 0.130528,-0.09525 l -0.352777,-0.0388 v 0.804331 h -0.52211 l 0.02469,0.105834 h 0.497416 v 0.75847 c -0.250472,0.07761 -0.45861,0.137583 -0.575027,0.165805 l 0.112889,0.299861 c 0.03528,-0.01411 0.06703,-0.04586 0.07761,-0.09172 0.137583,-0.05997 0.264583,-0.119944 0.384527,-0.176389 v 1.005415 c 0,0.05292 -0.01764,0.07055 -0.07761,0.07055 -0.0635,0 -0.370416,-0.02469 -0.370416,-0.02469 v 0.05997 c 0.137583,0.01764 0.215194,0.04233 0.261055,0.08467 0.04233,0.03175 0.05997,0.09525 0.07055,0.165805 0.303388,-0.03175 0.338666,-0.144638 0.338666,-0.335138 v -1.132414 c 0.232833,-0.112889 0.430388,-0.211666 0.589138,-0.292805 z m 0.09172,0.684388 c 0.148166,0.130527 0.324555,0.359832 0.36336,0.543276 0.268111,0.179917 0.462138,-0.370415 -0.328082,-0.567971 z m 1.411108,-0.292805 h -0.155222 v -0.257527 c 0.07761,-0.01411 0.112889,-0.04233 0.123472,-0.09172 l -0.352777,-0.03881 v 0.388055 h -1.31233 l 0.02822,0.102305 h 1.284108 v 0.966609 c 0,0.05292 -0.01764,0.07056 -0.08467,0.07056 -0.07408,0 -0.472722,-0.02822 -0.472722,-0.02822 v 0.05644 c 0.172861,0.02117 0.264583,0.04939 0.324555,0.08819 0.05292,0.03528 0.07056,0.09525 0.08114,0.165805 0.342194,-0.03175 0.380999,-0.148166 0.380999,-0.338666 v -0.98072 h 0.497416 c 0.04939,0 0.07761,-0.01764 0.08819,-0.05644 -0.102305,-0.105833 -0.278694,-0.250472 -0.278694,-0.250472 z"
         id="path84" />
      <path
         d="m 53.15564,83.678446 -0.151694,0.148166 h -0.448027 l -0.264582,-0.112888 v 3.132659 h 0.03881 c 0.112889,0 0.183444,-0.0635 0.183444,-0.08467 v -2.832799 h 0.497416 c -0.08114,0.271638 -0.215194,0.670276 -0.303388,0.88547 0.243416,0.261055 0.328082,0.52211 0.328082,0.761998 0,0.134056 -0.02822,0.208139 -0.09172,0.243416 -0.02822,0.01058 -0.05292,0.01411 -0.09172,0.01411 H 52.60178 v 0.05645 c 0.07761,0.01058 0.144639,0.02822 0.172861,0.05644 0.02822,0.02822 0.04586,0.105833 0.04586,0.183444 0.335138,-0.01058 0.462138,-0.172861 0.45861,-0.497415 0,-0.261055 -0.130527,-0.560916 -0.486832,-0.825499 0.155222,-0.20461 0.370416,-0.599721 0.483304,-0.811387 0.08467,-0.0035 0.130528,-0.01411 0.15875,-0.03881 z m 0.652638,2.084912 h 0.952498 v 0.857248 h -0.952498 z m 0.952498,-1.781524 v 0.761999 h -0.952498 v -0.761999 z m 0,1.679219 h -0.952498 v -0.814915 h 0.952498 z m 0.264582,0.959553 h -0.04233 V 84.02064 c 0.08467,-0.01058 0.134055,-0.02822 0.15875,-0.0635 l -0.303388,-0.236361 -0.116417,0.15875 h -0.87489 L 53.589556,83.76664 v 2.853966 h -0.599721 l 0.02822,0.09878 h 2.331856 c 0.04586,0 0.07761,-0.01764 0.08819,-0.05292 -0.09878,-0.102305 -0.268111,-0.250471 -0.268111,-0.250471 z"
         id="path86" />
    </g>
    <g
       aria-label="除阻"
       id="text62329-4"
       style="font-size:3.52777px;line-height:1.25;font-family:'Noto Serif SC';-inkscape-font-specification:'Noto Serif SC';clip-rule:evenodd;fill-rule:evenodd;stroke-width:0.264583;image-rendering:optimizeQuality;shape-rendering:geometricPrecision;text-rendering:geometricPrecision">
      <path
         d="m 67.828168,83.626165 -0.151694,0.144638 h -0.412749 l -0.264583,-0.109361 v 3.129132 h 0.03528 c 0.112888,0 0.186971,-0.0635 0.186971,-0.08114 v -2.8328 h 0.465666 c -0.08114,0.282222 -0.215194,0.691443 -0.303388,0.913693 0.232833,0.264583 0.306916,0.536221 0.306916,0.779637 0,0.137583 -0.03175,0.215194 -0.09172,0.246944 -0.02822,0.01764 -0.05292,0.02117 -0.09172,0.02117 H 67.27078 v 0.05644 c 0.07761,0.01058 0.148167,0.03175 0.172861,0.05644 0.02469,0.03175 0.04233,0.105833 0.04233,0.179916 0.324555,-0.01411 0.444499,-0.17286 0.440971,-0.504471 0,-0.26811 -0.116416,-0.571498 -0.455082,-0.846664 0.144639,-0.215194 0.36336,-0.620888 0.479777,-0.83961 0.08114,-0.0035 0.130527,-0.01058 0.155222,-0.04233 z m 0.500943,1.968495 c -0.102305,0.306916 -0.328082,0.677332 -0.599721,0.917221 l 0.02822,0.04939 c 0.335139,-0.197555 0.634999,-0.515054 0.77611,-0.793748 0.06703,0.0071 0.102305,0 0.116416,-0.03528 z m 0.984248,0.03175 c 0.186972,0.225778 0.444499,0.589138 0.515054,0.850193 0.261055,0.194027 0.437444,-0.370416 -0.469193,-0.878415 z m 0.271638,-0.377471 H 69.076998 V 84.77269 h 0.557388 c 0.04586,0 0.07761,-0.01764 0.08819,-0.05644 -0.102305,-0.09525 -0.261055,-0.218722 -0.261055,-0.218722 l -0.137583,0.172861 h -1.068914 l 0.02822,0.102305 h 0.571499 v 0.476249 H 67.98339 l 0.02822,0.102305 h 0.843137 v 1.090081 c 0,0.04939 -0.01411,0.0635 -0.07408,0.0635 -0.06703,0 -0.370416,-0.02117 -0.370416,-0.02117 v 0.05292 c 0.144638,0.02117 0.218722,0.04586 0.26811,0.08819 0.03881,0.03175 0.05644,0.09878 0.05997,0.165805 0.29986,-0.03175 0.338665,-0.162277 0.338665,-0.342193 v -1.097137 h 0.874887 c 0.04939,0 0.08114,-0.01764 0.09172,-0.05644 -0.116416,-0.102305 -0.296332,-0.250472 -0.296332,-0.250472 z m -0.779637,-1.69333 c -0.127,0.423333 -0.606776,0.987776 -1.040692,1.273525 l 0.02822,0.04939 c 0.500943,-0.250472 0.987776,-0.691443 1.220609,-1.132414 0.176388,0.430388 0.536221,0.786693 0.934859,1.015998 0.02117,-0.09172 0.09878,-0.172861 0.194027,-0.197555 l 0.0071,-0.04939 c -0.430388,-0.172861 -0.860776,-0.448027 -1.07597,-0.80786 0.08114,-0.0071 0.116416,-0.02469 0.123472,-0.0635 z"
         id="path89" />
      <path
         d="m 71.401799,83.622637 -0.151694,0.148166 h -0.448027 l -0.264583,-0.112888 v 3.132659 h 0.03881 c 0.112888,0 0.183444,-0.0635 0.183444,-0.08467 v -2.832799 h 0.497415 c -0.08114,0.271638 -0.215194,0.670276 -0.303388,0.88547 0.243416,0.261055 0.328083,0.52211 0.328083,0.761998 0,0.134055 -0.02822,0.208139 -0.09172,0.243416 -0.02822,0.01058 -0.05292,0.01411 -0.09172,0.01411 h -0.250472 v 0.05644 c 0.07761,0.01058 0.144639,0.02822 0.172861,0.05644 0.02822,0.02822 0.04586,0.105833 0.04586,0.183444 0.335138,-0.01058 0.462138,-0.172861 0.45861,-0.497415 0,-0.261055 -0.130528,-0.560916 -0.486832,-0.825499 0.155221,-0.20461 0.370415,-0.599721 0.483304,-0.811387 0.08467,-0.0035 0.130528,-0.01411 0.15875,-0.0388 z m 0.652637,2.084912 h 0.952498 v 0.857248 h -0.952498 z m 0.952498,-1.781524 v 0.761999 h -0.952498 v -0.761999 z m 0,1.679219 h -0.952498 v -0.814915 h 0.952498 z m 0.264583,0.959553 h -0.04233 v -2.599966 c 0.08467,-0.01058 0.134055,-0.02822 0.158749,-0.0635 l -0.303388,-0.236361 -0.116416,0.15875 h -0.874887 l -0.257527,-0.112889 v 2.853966 h -0.599721 l 0.02822,0.09878 h 2.331856 c 0.04586,0 0.07761,-0.01764 0.08819,-0.05292 -0.09878,-0.102305 -0.26811,-0.250471 -0.26811,-0.250471 z"
         id="path91" />
    </g>
    <g
       aria-label="持阻"
       id="text57225-7"
       style="font-size:3.52777px;line-height:1.25;font-family:'Noto Serif SC';-inkscape-font-specification:'Noto Serif SC';clip-rule:evenodd;fill-rule:evenodd;stroke-width:0.264583;image-rendering:optimizeQuality;shape-rendering:geometricPrecision;text-rendering:geometricPrecision"
       transform="translate(0.96831553)">
      <path
         d="m 49.963008,53.68229 h 0.684388 v 0.532693 h -0.938387 l 0.02822,0.105833 h 2.042579 c 0.04586,0 0.08114,-0.01764 0.09172,-0.05644 -0.116416,-0.109361 -0.306916,-0.261055 -0.306916,-0.261055 l -0.162277,0.211666 H 50.873173 V 53.68229 h 0.723193 c 0.04939,0 0.08467,-0.01764 0.09525,-0.05645 -0.116417,-0.109361 -0.299861,-0.253999 -0.299861,-0.253999 L 51.22595,53.579979 H 50.873173 V 53.16723 c 0.08467,-0.01411 0.119944,-0.04939 0.127,-0.09878 l -0.352777,-0.03881 v 0.550332 h -0.71261 z m -0.03881,0.747887 c -0.194027,0.0635 -0.391583,0.127 -0.571499,0.183444 v -0.691443 h 0.504471 c 0.04939,0 0.08114,-0.01764 0.09172,-0.05644 -0.102305,-0.102306 -0.26811,-0.246944 -0.26811,-0.246944 l -0.151694,0.197555 h -0.176389 v -0.670276 c 0.08467,-0.01058 0.119944,-0.04586 0.130528,-0.09525 l -0.352777,-0.03881 v 0.804332 h -0.52211 l 0.02469,0.105833 h 0.497416 v 0.758471 c -0.250472,0.07761 -0.45861,0.137583 -0.575027,0.165805 l 0.112889,0.29986 c 0.03528,-0.01411 0.06703,-0.04586 0.07761,-0.09172 0.137583,-0.05997 0.264583,-0.119944 0.384527,-0.176388 v 1.005414 c 0,0.05292 -0.01764,0.07056 -0.07761,0.07056 -0.0635,0 -0.370416,-0.0247 -0.370416,-0.0247 v 0.05997 c 0.137583,0.01764 0.215194,0.04233 0.261055,0.08467 0.04233,0.03175 0.05997,0.09525 0.07055,0.165805 0.303388,-0.03175 0.338666,-0.144639 0.338666,-0.335138 v -1.132414 c 0.232833,-0.112889 0.430388,-0.211667 0.589138,-0.292805 z m 0.09172,0.684387 c 0.148166,0.130528 0.324555,0.359833 0.36336,0.543277 0.268111,0.179916 0.462138,-0.370416 -0.328082,-0.567971 z m 1.411108,-0.292805 h -0.155222 v -0.257527 c 0.07761,-0.01411 0.112889,-0.04233 0.123472,-0.09172 l -0.352777,-0.0388 v 0.388054 h -1.31233 l 0.02822,0.102306 h 1.284108 v 0.966609 c 0,0.05292 -0.01764,0.07056 -0.08467,0.07056 -0.07408,0 -0.472722,-0.02822 -0.472722,-0.02822 v 0.05644 c 0.172861,0.02117 0.264583,0.04939 0.324555,0.08819 0.05292,0.03528 0.07056,0.09525 0.08114,0.165806 0.342194,-0.03175 0.380999,-0.148167 0.380999,-0.338666 v -0.98072 h 0.497416 c 0.04939,0 0.07761,-0.01764 0.08819,-0.05644 C 51.7551,54.761798 51.578711,54.61716 51.578711,54.61716 Z"
         id="path68" />
      <path
         d="m 53.15564,53.071985 -0.151694,0.148167 h -0.448027 l -0.264582,-0.112889 v 3.13266 h 0.03881 c 0.112889,0 0.183444,-0.0635 0.183444,-0.08467 v -2.832799 h 0.497416 c -0.08114,0.271638 -0.215194,0.670276 -0.303388,0.88547 0.243416,0.261055 0.328082,0.52211 0.328082,0.761999 0,0.134055 -0.02822,0.208138 -0.09172,0.243416 -0.02822,0.01058 -0.05292,0.01411 -0.09172,0.01411 H 52.60178 v 0.05644 c 0.07761,0.01058 0.144639,0.02822 0.172861,0.05644 0.02822,0.02822 0.04586,0.105833 0.04586,0.183444 0.335138,-0.01058 0.462138,-0.172861 0.45861,-0.497416 0,-0.261055 -0.130527,-0.560915 -0.486832,-0.825498 0.155222,-0.204611 0.370416,-0.599721 0.483304,-0.811387 0.08467,-0.0035 0.130528,-0.01411 0.15875,-0.03881 z m 0.652638,2.084912 h 0.952498 v 0.857249 h -0.952498 z m 0.952498,-1.781523 v 0.761998 h -0.952498 v -0.761998 z m 0,1.679218 h -0.952498 v -0.814915 h 0.952498 z m 0.264582,0.959554 h -0.04233 v -2.599967 c 0.08467,-0.01058 0.134055,-0.02822 0.15875,-0.0635 l -0.303388,-0.23636 -0.116417,0.158749 h -0.87489 L 53.589556,53.16018 v 2.853966 h -0.599721 l 0.02822,0.09878 h 2.331856 c 0.04586,0 0.07761,-0.01764 0.08819,-0.05292 C 55.339321,55.9577 55.16999,55.809534 55.16999,55.809534 Z"
         id="path70" />
    </g>
    <g
       aria-label="除阻"
       id="text62329-6"
       style="font-size:3.52777px;line-height:1.25;font-family:'Noto Serif SC';-inkscape-font-specification:'Noto Serif SC';clip-rule:evenodd;fill-rule:evenodd;stroke-width:0.264583;image-rendering:optimizeQuality;shape-rendering:geometricPrecision;text-rendering:geometricPrecision">
      <path
         d="m 67.82816,53.019704 -0.151694,0.144639 h -0.412749 l -0.264583,-0.109361 v 3.129132 h 0.03528 c 0.112889,0 0.186972,-0.0635 0.186972,-0.08114 v -2.832799 h 0.465665 c -0.08114,0.282221 -0.215194,0.691443 -0.303388,0.913692 0.232833,0.264583 0.306916,0.536221 0.306916,0.779637 0,0.137583 -0.03175,0.215194 -0.09172,0.246944 -0.02822,0.01764 -0.05292,0.02117 -0.09172,0.02117 h -0.23636 v 0.05644 c 0.07761,0.01058 0.148166,0.03175 0.17286,0.05644 0.02469,0.03175 0.04233,0.105833 0.04233,0.179916 0.324554,-0.01411 0.444499,-0.172861 0.440971,-0.504471 0,-0.268111 -0.116417,-0.571499 -0.455083,-0.846665 0.144639,-0.215194 0.363361,-0.620888 0.479777,-0.839609 0.08114,-0.0035 0.130528,-0.01058 0.155222,-0.04233 z m 0.500944,1.968496 c -0.102306,0.306916 -0.328083,0.677332 -0.599721,0.91722 l 0.02822,0.04939 c 0.335138,-0.197555 0.634998,-0.515055 0.776109,-0.793748 0.06703,0.0071 0.102306,0 0.116417,-0.03528 z m 0.984247,0.03175 c 0.186972,0.225777 0.444499,0.589137 0.515055,0.850192 0.261055,0.194028 0.437443,-0.370416 -0.469194,-0.878414 z m 0.271639,-0.377472 h -0.507999 v -0.476249 h 0.557387 c 0.04586,0 0.07761,-0.01764 0.08819,-0.05644 -0.102306,-0.09525 -0.261055,-0.218722 -0.261055,-0.218722 l -0.137583,0.172861 H 68.25502 l 0.02822,0.102305 h 0.571498 v 0.476249 h -0.871359 l 0.02822,0.102306 h 0.843137 v 1.090081 c 0,0.04939 -0.01411,0.0635 -0.07408,0.0635 -0.06703,0 -0.370416,-0.02117 -0.370416,-0.02117 v 0.05292 c 0.144639,0.02117 0.218722,0.04586 0.268111,0.08819 0.0388,0.03175 0.05644,0.09878 0.05997,0.165805 0.29986,-0.03175 0.338666,-0.162278 0.338666,-0.342194 v -1.097136 h 0.874887 c 0.04939,0 0.08114,-0.01764 0.09172,-0.05645 -0.116417,-0.102305 -0.296333,-0.250471 -0.296333,-0.250471 z m -0.779637,-1.693329 c -0.127,0.423332 -0.606777,0.987775 -1.040693,1.273525 l 0.02822,0.04939 c 0.500943,-0.250472 0.987775,-0.691443 1.220608,-1.132415 0.176388,0.430388 0.536221,0.786693 0.934859,1.015998 0.02117,-0.09172 0.09878,-0.172861 0.194027,-0.197555 l 0.0071,-0.04939 c -0.430388,-0.172861 -0.860776,-0.448027 -1.07597,-0.807859 0.08114,-0.0071 0.116416,-0.02469 0.123472,-0.0635 z"
         id="path63" />
      <path
         d="m 71.401791,53.016176 -0.151694,0.148167 H 70.80207 l -0.264582,-0.112889 v 3.13266 h 0.03881 c 0.112889,0 0.183444,-0.0635 0.183444,-0.08467 v -2.832799 h 0.497416 c -0.08114,0.271638 -0.215194,0.670276 -0.303389,0.88547 0.243417,0.261055 0.328083,0.52211 0.328083,0.761999 0,0.134055 -0.02822,0.208138 -0.09172,0.243416 -0.02822,0.01058 -0.05292,0.01411 -0.09172,0.01411 h -0.250472 v 0.05644 c 0.07761,0.01058 0.144639,0.02822 0.172861,0.05645 0.02822,0.02822 0.04586,0.105833 0.04586,0.183444 0.335138,-0.01058 0.462138,-0.172861 0.45861,-0.497416 0,-0.261055 -0.130527,-0.560915 -0.486832,-0.825498 0.155222,-0.204611 0.370416,-0.599721 0.483304,-0.811387 0.08467,-0.0035 0.130528,-0.01411 0.15875,-0.03881 z m 0.652638,2.084912 h 0.952498 v 0.857249 h -0.952498 z m 0.952498,-1.781523 v 0.761998 h -0.952498 v -0.761998 z m 0,1.679218 h -0.952498 v -0.814915 h 0.952498 z m 0.264582,0.959554 h -0.04233 V 53.35837 c 0.08467,-0.01058 0.134055,-0.02822 0.15875,-0.0635 l -0.303388,-0.23636 -0.116417,0.158749 h -0.874887 l -0.257527,-0.112888 v 2.853966 h -0.599721 l 0.02822,0.09878 h 2.331856 c 0.04586,0 0.07761,-0.01764 0.08819,-0.05292 -0.09878,-0.102306 -0.26811,-0.250472 -0.26811,-0.250472 z"
         id="path65" />
    </g>
    <g
       aria-label="不送气清塞音"
       id="text6196"
       style="font-weight:bold;font-size:3.88056px;line-height:1.25;font-family:'Noto Serif SC';-inkscape-font-specification:'Noto Serif SC Bold';stroke-width:0.264583">
      <path
         d="m 44.975002,35.768081 c 0.05821,0 0.100895,-0.0194 0.112536,-0.06209 -0.190147,-0.162984 -0.508353,-0.403578 -0.508353,-0.403578 l -0.2794,0.357011 h -2.797884 l 0.03105,0.108656 h 1.59879 c -0.240594,0.814917 -0.90417,1.773416 -1.684163,2.402066 l 0.03104,0.03104 c 0.613128,-0.318206 1.148645,-0.776112 1.567746,-1.288346 v 2.01013 h 0.08537 c 0.170745,0 0.376415,-0.07373 0.380295,-0.100895 v -2.22356 c 0.07373,-0.01164 0.108656,-0.03881 0.120297,-0.07373 l -0.240594,-0.08925 c 0.1397,-0.217311 0.256117,-0.442384 0.34925,-0.667456 z m -1.338793,1.016707 c 0.384175,0.2794 0.869245,0.745067 1.078796,1.137004 0.519995,0.256117 0.714023,-0.791635 -1.043871,-1.17193 z"
         id="path8944" />
      <path
         d="m 46.802746,35.317936 c 0.124178,0.178506 0.244475,0.442384 0.256117,0.679098 0.395817,0.333728 0.826559,-0.450145 -0.221192,-0.698501 z m 0.605367,0.962379 c 0,0.221192 0,0.430742 -0.0194,0.62477 h -0.927453 l 0.03104,0.112536 h 0.884768 c -0.06209,0.48507 -0.256117,0.873126 -0.869246,1.191332 l 0.03493,0.05433 c 0.68686,-0.213431 1.020588,-0.500592 1.183571,-0.869246 0.263878,0.217312 0.558801,0.539398 0.679098,0.818799 0.477309,0.252236 0.710143,-0.679098 -0.644173,-0.90029 0.03493,-0.09313 0.06209,-0.190148 0.08149,-0.294923 h 1.016707 c 0.05433,0 0.09701,-0.0194 0.104775,-0.06209 -0.166864,-0.147461 -0.438503,-0.353131 -0.438503,-0.353131 L 48.289,36.905085 h -0.426861 c 0.02328,-0.194028 0.03493,-0.399698 0.03881,-0.62477 h 0.915813 c 0.05433,0 0.09701,-0.0194 0.104775,-0.06209 -0.162984,-0.1397 -0.422981,-0.333728 -0.422981,-0.333728 l -0.228953,0.28328 H 47.8699 c 0.201789,-0.166864 0.4191,-0.391936 0.597606,-0.605367 0.08537,0.0039 0.13582,-0.03104 0.155223,-0.07761 l -0.605368,-0.20567 c -0.07761,0.306565 -0.178506,0.659695 -0.252236,0.888648 h -1.230138 l 0.03104,0.112537 z m -1.87431,-0.89641 c 0.162983,0.225073 0.353131,0.55104 0.41522,0.834321 0.422981,0.302683 0.768351,-0.531637 -0.380295,-0.853723 z m 0.737306,1.45521 c 0.112536,-0.0194 0.170745,-0.05045 0.197909,-0.08537 l -0.454026,-0.364773 -0.213431,0.279401 h -0.442383 l 0.0194,0.112536 h 0.48507 v 1.342674 c -0.159103,0.100894 -0.364772,0.236714 -0.516114,0.318206 l 0.306564,0.457906 c 0.03104,-0.0194 0.04657,-0.04657 0.03493,-0.08537 0.120298,-0.21343 0.294923,-0.481189 0.372534,-0.609248 0.04269,-0.06985 0.08537,-0.07761 0.13582,-0.0039 0.306564,0.473428 0.640292,0.636412 1.45909,0.636412 h 1.047751 c 0.0194,-0.186267 0.124178,-0.34537 0.294923,-0.384176 v -0.04657 c -0.422981,0.02328 -0.772232,0.02716 -1.195213,0.02716 -0.814917,0 -1.237898,-0.05433 -1.532821,-0.35313 z"
         id="path8946" />
      <path
         d="m 52.65075,35.962109 c 0.05433,0 0.09701,-0.0194 0.108655,-0.06209 -0.182386,-0.159103 -0.461786,-0.364773 -0.461786,-0.364773 l -0.256117,0.318206 h -1.668641 c 0.05045,-0.09701 0.09701,-0.201789 0.1397,-0.306564 0.09313,0 0.143581,-0.03104 0.159103,-0.07761 l -0.628651,-0.201789 c -0.162983,0.714023 -0.492831,1.431926 -0.818798,1.882071 l 0.04657,0.03104 c 0.41522,-0.287162 0.768351,-0.694621 1.047751,-1.218496 z m -2.545648,0.399697 0.03104,0.108656 h 2.250725 c 0.05433,0 0.08925,-0.0194 0.100894,-0.06209 -0.162983,-0.143581 -0.438503,-0.34925 -0.438503,-0.34925 l -0.240595,0.302683 z m 2.731915,1.614313 -0.04269,-0.0039 c -0.03493,0.1397 -0.07373,0.263878 -0.120297,0.364772 -0.0194,0.04269 -0.04269,0.05433 -0.100894,0.03493 -0.442384,-0.112537 -0.500593,-0.776112 -0.48507,-1.331033 0.06985,-0.01164 0.131939,-0.03492 0.155222,-0.06209 l -0.442384,-0.329848 -0.221192,0.236714 h -1.87043 l 0.03493,0.108656 h 1.878191 c 0.01552,0.896409 0.108656,1.637596 0.811037,1.862669 0.213431,0.08149 0.41134,0.07761 0.492831,-0.09313 0.03493,-0.08537 0.01164,-0.182386 -0.104775,-0.310445 z"
         id="path8948" />
      <path
         d="m 53.372534,35.380025 c 0.147461,0.131939 0.325967,0.364772 0.388056,0.570442 0.426861,0.228953 0.702381,-0.566562 -0.357012,-0.597606 z m -0.2794,0.853723 c 0.1397,0.128058 0.287161,0.34537 0.325967,0.543278 0.395817,0.263878 0.729545,-0.500592 -0.298804,-0.570442 z m 1.144765,-0.20567 c -0.686859,1.517299 -0.686859,1.517299 -0.768351,1.664761 -0.04269,0.07761 -0.06209,0.07761 -0.116417,0.07761 h -0.178506 v 0.07373 c 0.08537,0.0039 0.147462,0.02328 0.201789,0.06209 0.08925,0.06209 0.108656,0.41134 0.03493,0.814918 0.03104,0.143581 0.120298,0.197908 0.209551,0.197908 0.190147,0 0.322086,-0.128058 0.329847,-0.322086 0.01164,-0.341489 -0.147461,-0.473428 -0.155222,-0.675217 -0.0039,-0.100895 0.02328,-0.240595 0.05433,-0.368654 0.05045,-0.201789 0.306564,-1.051631 0.450145,-1.509537 z m 0.702381,1.920877 v -0.368653 h 0.974021 v 0.368653 z m 0.974021,-0.830439 v 0.353131 H 54.94028 v -0.353131 z m -0.03881,-0.100895 h -0.911932 l -0.457906,-0.186267 v 2.083861 h 0.06597 c 0.186267,0 0.368653,-0.104775 0.368653,-0.147461 v -0.706262 h 0.974021 v 0.333728 c 0,0.05433 -0.01552,0.07761 -0.08149,0.07761 -0.09313,0 -0.527756,-0.02328 -0.527756,-0.02328 v 0.05045 c 0.205669,0.03493 0.294922,0.08149 0.360892,0.1397 0.06597,0.06209 0.08537,0.159103 0.100894,0.287162 0.516115,-0.04269 0.589845,-0.20567 0.589845,-0.48507 v -1.24178 c 0.07761,-0.01552 0.131939,-0.05433 0.155223,-0.08149 l -0.438503,-0.333728 z m 0.20567,-0.407459 h -0.469548 v -0.357011 h 0.884768 c 0.05433,0 0.09313,-0.0194 0.100894,-0.06209 -0.151342,-0.131939 -0.395817,-0.325967 -0.395817,-0.325967 l -0.221192,0.2794 h -0.368653 v -0.318206 h 0.939095 c 0.05433,0 0.09701,-0.0194 0.108656,-0.06209 -0.159103,-0.135819 -0.411339,-0.325967 -0.411339,-0.325967 l -0.228953,0.279401 h -0.407459 v -0.252237 c 0.100895,-0.01552 0.131939,-0.05433 0.1397,-0.108656 l -0.585964,-0.05045 v 0.41134 h -0.861485 l 0.03104,0.108655 h 0.83044 v 0.318206 h -0.75671 l 0.03104,0.108656 h 0.725665 v 0.357011 h -0.962379 l 0.03104,0.108656 h 2.405947 c 0.05433,0 0.09701,-0.0194 0.108656,-0.06209 -0.166864,-0.1397 -0.430742,-0.337609 -0.430742,-0.337609 z"
         id="path8950" />
      <path
         d="m 59.802622,38.694023 h -0.764471 v -0.512234 h 0.686859 c 0.05433,0 0.09313,-0.0194 0.104776,-0.06209 -0.147462,-0.124178 -0.372534,-0.291042 -0.372534,-0.291042 l -0.20567,0.244475 H 59.038151 V 37.7006 c 0.08925,-0.01552 0.116417,-0.05045 0.124178,-0.100895 l -0.582084,-0.05045 v 0.523875 h -0.745067 l 0.03104,0.108656 h 0.714023 v 0.512234 h -1.400882 l 0.03104,0.108656 h 3.154895 c 0.05821,0 0.09701,-0.0194 0.108656,-0.06209 -0.162984,-0.1397 -0.434623,-0.333728 -0.434623,-0.333728 z m -1.284466,-1.377599 v -0.384175 h 0.539398 v 0.384175 z m 0,-0.83432 h 0.539398 v 0.337609 h -0.539398 z m 1.982966,0.946856 c 0.05433,0 0.09701,-0.0194 0.104776,-0.06209 -0.159103,-0.139701 -0.419101,-0.333729 -0.419101,-0.333729 l -0.225072,0.283281 h -0.461787 v -0.384175 h 0.570442 c 0.05433,0 0.08925,-0.0194 0.100895,-0.06209 -0.1397,-0.124178 -0.360892,-0.294923 -0.360892,-0.294923 l -0.201789,0.244476 h -0.108656 v -0.337609 h 0.62089 c 0.05433,0 0.09313,-0.0194 0.104775,-0.06209 -0.05045,-0.04269 -0.112537,-0.08537 -0.170745,-0.128059 0.159103,-0.08149 0.34537,-0.205669 0.461787,-0.302683 0.07761,-0.0078 0.120297,-0.01552 0.147461,-0.04657 l -0.403578,-0.380295 -0.225073,0.228953 h -1.129243 c 0.27552,-0.05433 0.380295,-0.523875 -0.411339,-0.516114 l -0.02716,0.02328 c 0.108656,0.08925 0.190147,0.263878 0.182386,0.422981 0.05045,0.03881 0.100895,0.06209 0.147462,0.06985 h -1.234018 c -0.01552,-0.06209 -0.03493,-0.131939 -0.06209,-0.201789 h -0.05433 c 0.01164,0.194028 -0.131939,0.376414 -0.263878,0.442384 -0.116417,0.05821 -0.197909,0.159103 -0.159103,0.294922 0.05045,0.139701 0.232833,0.174626 0.357011,0.09701 0.128059,-0.07761 0.225073,-0.259997 0.197909,-0.519995 h 2.483558 c -0.0194,0.108656 -0.05045,0.240595 -0.07761,0.34149 -0.06209,-0.04657 -0.112536,-0.07761 -0.112536,-0.07761 l -0.194028,0.20179 h -0.178506 v -0.228953 c 0.08925,-0.01552 0.120297,-0.05045 0.124178,-0.100895 l -0.566562,-0.05045 v 0.380295 h -0.539398 v -0.228953 c 0.09313,-0.01552 0.120298,-0.05045 0.128059,-0.100895 l -0.562681,-0.05045 v 0.380295 h -0.609248 l 0.03104,0.112536 h 0.578204 v 0.337609 h -0.562682 l 0.03104,0.112536 h 0.531637 v 0.384175 h -1.051632 l 0.03104,0.112536 h 0.935215 c -0.21343,0.329848 -0.617009,0.667457 -1.036109,0.880888 l 0.02716,0.05045 c 0.585964,-0.178506 1.171929,-0.492831 1.513418,-0.931335 h 0.861484 c 0.20567,0.391937 0.578204,0.682979 1.001185,0.873126 0.04269,-0.201789 0.143581,-0.337608 0.298803,-0.380294 l 0.0039,-0.04269 c -0.407459,-0.06597 -0.892529,-0.221192 -1.183571,-0.450145 z"
         id="path8952" />
      <path
         d="m 62.033944,38.511637 v -0.535518 h 1.323271 v 0.535518 z m 1.323271,-1.160288 v 0.516115 h -1.323271 v -0.516115 z m -0.04269,-0.108655 h -1.25342 l -0.48507,-0.197909 v 1.87043 h 0.06597 c 0.194028,0 0.391937,-0.100895 0.391937,-0.147461 v -0.147462 h 1.323271 v 0.27552 h 0.07761 c 0.174625,0 0.399697,-0.116417 0.403578,-0.151342 v -1.311629 c 0.07761,-0.0194 0.131939,-0.05433 0.159103,-0.08537 l -0.457906,-0.353131 z m 0.442384,-0.508354 h -0.737306 c 0.232833,-0.178506 0.48895,-0.403578 0.644173,-0.574323 0.08537,0.01164 0.131939,-0.0194 0.147461,-0.06597 l -0.519995,-0.162984 h 0.931334 c 0.05433,0 0.09701,-0.0194 0.104776,-0.06209 C 64.16049,35.717634 63.87721,35.496442 63.87721,35.496442 l -0.252237,0.322086 h -0.822679 c 0.259998,-0.06597 0.337609,-0.523875 -0.446264,-0.547159 l -0.03104,0.0194 c 0.09701,0.112536 0.21343,0.302684 0.240594,0.477309 0.03881,0.02716 0.07761,0.04269 0.108656,0.05045 h -1.571627 l 0.03104,0.112536 h 0.644173 l -0.0078,0.0039 c 0.104775,0.190147 0.205669,0.454025 0.21343,0.69462 0.376415,0.341489 0.818798,-0.388056 -0.128058,-0.698501 h 1.342674 c -0.06209,0.240595 -0.166864,0.566562 -0.267759,0.803276 h -2.00625 l 0.03104,0.108656 h 3.418773 c 0.05433,0 0.100895,-0.0194 0.108656,-0.06209 -0.170745,-0.155222 -0.465667,-0.384175 -0.465667,-0.384175 z"
         id="path8954" />
    </g>
    <g
       aria-label="送气清塞音"
       id="text6196-0"
       style="font-weight:bold;font-size:3.88056px;line-height:1.25;font-family:'Noto Serif SC';-inkscape-font-specification:'Noto Serif SC Bold';stroke-width:0.264583">
      <path
         d="m 44.852762,65.473705 c 0.124178,0.178506 0.244476,0.442384 0.256117,0.679098 0.395817,0.333728 0.82656,-0.450145 -0.221192,-0.698501 z m 0.605368,0.962379 c 0,0.221192 0,0.430742 -0.0194,0.62477 h -0.927454 l 0.03104,0.112536 h 0.884767 c -0.06209,0.48507 -0.256117,0.873126 -0.869245,1.191332 l 0.03493,0.05433 c 0.686859,-0.213431 1.020587,-0.500592 1.183571,-0.869245 0.263878,0.217311 0.5588,0.539398 0.679098,0.818798 0.477308,0.252236 0.710142,-0.679098 -0.644173,-0.90029 0.03493,-0.09313 0.06209,-0.190147 0.08149,-0.294923 h 1.016707 c 0.05433,0 0.09701,-0.0194 0.104775,-0.06209 -0.166864,-0.147462 -0.438503,-0.353131 -0.438503,-0.353131 l -0.236714,0.302683 h -0.426862 c 0.02328,-0.194028 0.03493,-0.399697 0.03881,-0.62477 h 0.915812 c 0.05433,0 0.09701,-0.0194 0.104775,-0.06209 -0.162983,-0.1397 -0.422981,-0.333728 -0.422981,-0.333728 l -0.228953,0.283281 h -0.399698 c 0.201789,-0.166864 0.419101,-0.391937 0.597607,-0.605368 0.08537,0.0039 0.135819,-0.03104 0.155222,-0.07761 L 46.067378,65.4349 c -0.07761,0.306564 -0.178506,0.659695 -0.252237,0.888648 h -1.230137 l 0.03104,0.112536 z m -1.874311,-0.896409 c 0.162984,0.225072 0.353131,0.551039 0.41522,0.83432 0.422981,0.302684 0.768351,-0.531637 -0.380295,-0.853723 z m 0.737307,1.45521 c 0.112536,-0.0194 0.170744,-0.05045 0.197908,-0.08537 l -0.454025,-0.364772 -0.213431,0.2794 h -0.442384 l 0.0194,0.112536 h 0.48507 v 1.342674 c -0.159103,0.100895 -0.364773,0.236714 -0.516115,0.318206 l 0.306565,0.457906 c 0.03104,-0.0194 0.04657,-0.04657 0.03493,-0.08537 0.120297,-0.213431 0.294922,-0.48119 0.372533,-0.609248 0.04269,-0.06985 0.08537,-0.07761 0.13582,-0.0039 0.306564,0.473429 0.640292,0.636412 1.459091,0.636412 h 1.047751 c 0.0194,-0.186267 0.124178,-0.34537 0.294922,-0.384175 v -0.04657 c -0.422981,0.02328 -0.772231,0.02716 -1.195212,0.02716 -0.814918,0 -1.237899,-0.05433 -1.532821,-0.353131 z"
         id="path8933" />
      <path
         d="m 50.700766,66.117878 c 0.05433,0 0.09701,-0.0194 0.108656,-0.06209 -0.182387,-0.159103 -0.461787,-0.364772 -0.461787,-0.364772 l -0.256117,0.318205 h -1.668641 c 0.05045,-0.09701 0.09701,-0.201789 0.139701,-0.306564 0.09313,0 0.14358,-0.03104 0.159103,-0.07761 L 48.09303,65.423258 c -0.162984,0.714023 -0.492831,1.431927 -0.818798,1.882071 l 0.04657,0.03105 c 0.41522,-0.287161 0.768351,-0.69462 1.047752,-1.218496 z m -2.545647,0.399698 0.03104,0.108656 h 2.250725 c 0.05433,0 0.08925,-0.0194 0.100895,-0.06209 -0.162984,-0.143581 -0.438504,-0.349251 -0.438504,-0.349251 l -0.240594,0.302684 z m 2.731914,1.614313 -0.04269,-0.0039 c -0.03493,0.1397 -0.07373,0.263878 -0.120298,0.364773 -0.0194,0.04269 -0.04269,0.05433 -0.100894,0.03493 -0.442384,-0.112536 -0.500592,-0.776112 -0.48507,-1.331032 0.06985,-0.01164 0.131939,-0.03493 0.155222,-0.06209 l -0.442383,-0.329848 -0.221192,0.236714 h -1.87043 l 0.03493,0.108656 h 1.878191 c 0.01552,0.896409 0.108655,1.637596 0.811037,1.862669 0.213431,0.08149 0.411339,0.07761 0.492831,-0.09313 0.03493,-0.08537 0.01164,-0.182386 -0.104775,-0.310444 z"
         id="path8935" />
      <path
         d="m 51.42255,65.535794 c 0.147462,0.131939 0.325967,0.364773 0.388056,0.570442 0.426862,0.228954 0.702382,-0.566561 -0.357011,-0.597606 z m -0.2794,0.853723 c 0.1397,0.128059 0.287161,0.34537 0.325967,0.543279 0.395817,0.263878 0.729545,-0.500592 -0.298803,-0.570443 z m 1.144765,-0.205669 c -0.686859,1.517299 -0.686859,1.517299 -0.768351,1.66476 -0.04269,0.07761 -0.06209,0.07761 -0.116417,0.07761 h -0.178505 v 0.07373 c 0.08537,0.0039 0.147461,0.02328 0.201789,0.06209 0.08925,0.06209 0.108656,0.411339 0.03493,0.814917 0.03104,0.143581 0.120297,0.197909 0.20955,0.197909 0.190148,0 0.322087,-0.128059 0.329848,-0.322087 0.01164,-0.341489 -0.147462,-0.473428 -0.155223,-0.675217 -0.0039,-0.100895 0.02328,-0.240595 0.05433,-0.368653 0.05045,-0.201789 0.306564,-1.051632 0.450145,-1.509538 z m 0.702381,1.920877 v -0.368653 h 0.974021 v 0.368653 z m 0.974021,-0.83044 v 0.353131 H 52.990296 V 67.274285 Z M 53.925511,67.17339 H 53.01358 l -0.457906,-0.186266 v 2.08386 h 0.06597 c 0.186267,0 0.368653,-0.104775 0.368653,-0.147461 v -0.706262 h 0.974021 v 0.333728 c 0,0.05433 -0.01552,0.07761 -0.08149,0.07761 -0.09313,0 -0.527756,-0.02328 -0.527756,-0.02328 v 0.05045 c 0.20567,0.03493 0.294923,0.08149 0.360892,0.139701 0.06597,0.06209 0.08537,0.159102 0.100895,0.287161 0.516114,-0.04269 0.589845,-0.20567 0.589845,-0.48507 v -1.241779 c 0.07761,-0.01552 0.131939,-0.05433 0.155222,-0.08149 L 54.12342,66.940557 Z m 0.20567,-0.407458 H 53.661633 V 66.40892 h 0.884768 c 0.05433,0 0.09313,-0.0194 0.100895,-0.06209 -0.151342,-0.131939 -0.395818,-0.325967 -0.395818,-0.325967 l -0.221191,0.2794 h -0.368654 v -0.318205 h 0.939096 c 0.05433,0 0.09701,-0.0194 0.108656,-0.06209 -0.159103,-0.13582 -0.41134,-0.325967 -0.41134,-0.325967 l -0.228953,0.2794 h -0.407459 v -0.252237 c 0.100895,-0.01552 0.131939,-0.05433 0.139701,-0.108655 l -0.585965,-0.05045 v 0.411339 h -0.861484 l 0.03104,0.108656 h 0.83044 v 0.318205 H 52.45866 l 0.03104,0.108656 h 0.725665 v 0.357012 H 52.25299 l 0.03105,0.108655 h 2.405947 c 0.05433,0 0.09701,-0.0194 0.108655,-0.06209 -0.166864,-0.1397 -0.430742,-0.337608 -0.430742,-0.337608 z"
         id="path8937" />
      <path
         d="m 57.852638,68.849792 h -0.76447 v -0.512234 h 0.686859 c 0.05433,0 0.09313,-0.0194 0.104775,-0.06209 -0.147461,-0.124177 -0.372534,-0.291042 -0.372534,-0.291042 l -0.205669,0.244476 h -0.213431 v -0.372534 c 0.08925,-0.01552 0.116417,-0.05045 0.124178,-0.100895 l -0.582084,-0.05045 v 0.523876 h -0.745068 l 0.03104,0.108655 h 0.714023 v 0.512234 H 55.22938 l 0.03104,0.108656 h 3.154895 c 0.05821,0 0.09701,-0.0194 0.108656,-0.06209 -0.162984,-0.1397 -0.434623,-0.333728 -0.434623,-0.333728 z m -1.284465,-1.377598 v -0.384176 h 0.539398 v 0.384176 z m 0,-0.834321 h 0.539398 v 0.337609 h -0.539398 z m 1.982966,0.946857 c 0.05433,0 0.09701,-0.0194 0.104775,-0.06209 -0.159103,-0.1397 -0.419101,-0.333728 -0.419101,-0.333728 l -0.225072,0.283281 h -0.461787 v -0.384176 h 0.570443 c 0.05433,0 0.08925,-0.0194 0.100894,-0.06209 -0.1397,-0.124178 -0.360892,-0.294922 -0.360892,-0.294922 l -0.201789,0.244475 h -0.108656 v -0.337609 h 0.62089 c 0.05433,0 0.09313,-0.0194 0.104775,-0.06209 -0.05045,-0.04269 -0.112536,-0.08537 -0.170745,-0.128058 0.159103,-0.08149 0.34537,-0.20567 0.461787,-0.302684 0.07761,-0.0078 0.120297,-0.01552 0.147461,-0.04657 l -0.403578,-0.380295 -0.225072,0.228954 h -1.129243 c 0.275519,-0.05433 0.380295,-0.523876 -0.41134,-0.516115 l -0.02716,0.02328 c 0.108656,0.08925 0.190148,0.263878 0.182387,0.422981 0.05045,0.03881 0.100894,0.06209 0.147461,0.06985 h -1.234018 c -0.01552,-0.06209 -0.03493,-0.13194 -0.06209,-0.20179 h -0.05433 c 0.01164,0.194028 -0.131939,0.376415 -0.263878,0.442384 -0.116417,0.05821 -0.197908,0.159103 -0.159103,0.294923 0.05045,0.1397 0.232834,0.174625 0.357012,0.09701 0.128058,-0.07761 0.225072,-0.259998 0.197908,-0.519995 h 2.483559 c -0.0194,0.108655 -0.05045,0.240594 -0.07761,0.341489 -0.06209,-0.04657 -0.112536,-0.07761 -0.112536,-0.07761 l -0.194028,0.201789 h -0.178506 v -0.228953 c 0.08925,-0.01552 0.120298,-0.05045 0.124178,-0.100895 l -0.566561,-0.05045 v 0.380295 h -0.539398 v -0.228953 c 0.09313,-0.01552 0.120297,-0.05045 0.128058,-0.100895 l -0.562681,-0.05045 v 0.380295 h -0.609248 l 0.03104,0.112536 h 0.578203 v 0.337609 h -0.562681 l 0.03104,0.112536 h 0.531637 v 0.384176 h -1.051632 l 0.03104,0.112536 h 0.935215 c -0.213431,0.329847 -0.617009,0.667456 -1.03611,0.880887 l 0.02716,0.05045 c 0.585965,-0.178506 1.171929,-0.492831 1.513418,-0.931334 h 0.861485 c 0.205669,0.391936 0.578203,0.682978 1.001184,0.873126 0.04269,-0.201789 0.143581,-0.337609 0.298803,-0.380295 l 0.0039,-0.04269 c -0.407459,-0.06597 -0.892529,-0.221192 -1.183571,-0.450145 z"
         id="path8939" />
      <path
         d="m 60.08396,68.667406 v -0.535517 h 1.323271 v 0.535517 z m 1.323271,-1.160287 v 0.516114 H 60.08396 v -0.516114 z m -0.04269,-0.108656 h -1.253421 l -0.48507,-0.197909 v 1.87043 h 0.06597 c 0.194028,0 0.391937,-0.100894 0.391937,-0.147461 v -0.147461 h 1.323271 v 0.275519 h 0.07761 c 0.174625,0 0.399698,-0.116416 0.403578,-0.151341 v -1.31163 c 0.07761,-0.0194 0.131939,-0.05433 0.159103,-0.08537 l -0.457906,-0.353131 z m 0.442384,-0.508353 h -0.737307 c 0.232834,-0.178506 0.488951,-0.403579 0.644173,-0.574323 0.08537,0.01164 0.131939,-0.0194 0.147461,-0.06597 l -0.519995,-0.162983 h 0.931335 c 0.05433,0 0.09701,-0.0194 0.104775,-0.06209 -0.166864,-0.151342 -0.450145,-0.372534 -0.450145,-0.372534 l -0.252236,0.322086 h -0.822679 c 0.259997,-0.06597 0.337609,-0.523875 -0.446265,-0.547159 l -0.03104,0.0194 c 0.09701,0.112537 0.213431,0.302684 0.240595,0.477309 0.0388,0.02716 0.07761,0.04269 0.108655,0.05045 h -1.571626 l 0.03104,0.112537 h 0.644173 l -0.0078,0.0039 c 0.104775,0.190148 0.20567,0.454026 0.213431,0.69462 0.376414,0.34149 0.818798,-0.388056 -0.128059,-0.6985 h 1.342674 c -0.06209,0.240594 -0.166864,0.566561 -0.267759,0.803276 H 58.97412 l 0.03104,0.108655 h 3.418774 c 0.05433,0 0.100894,-0.0194 0.108655,-0.06209 -0.170744,-0.155222 -0.465667,-0.384175 -0.465667,-0.384175 z"
         id="path8941" />
    </g>
  </g>
</svg>
