<?xml version="1.0" encoding="UTF-8" standalone="no"?>
<svg
   width="1000"
   height="700"
   version="1.1"
   id="svg4"
   sodipodi:docname="vowel-map.svg"
   inkscape:version="1.1.2 (b8e25be833, 2022-02-05)"
   xmlns:inkscape="http://www.inkscape.org/namespaces/inkscape"
   xmlns:sodipodi="http://sodipodi.sourceforge.net/DTD/sodipodi-0.dtd"
   xmlns="http://www.w3.org/2000/svg"
   xmlns:svg="http://www.w3.org/2000/svg">
  <defs
     id="defs8" />
  <sodipodi:namedview
     id="namedview6"
     pagecolor="#ffffff"
     bordercolor="#666666"
     borderopacity="1.0"
     inkscape:pageshadow="2"
     inkscape:pageopacity="0.0"
     inkscape:pagecheckerboard="0"
     showgrid="false"
     inkscape:zoom="0.72714286"
     inkscape:cx="499.90177"
     inkscape:cy="255.10805"
     inkscape:window-width="1280"
     inkscape:window-height="738"
     inkscape:window-x="-6"
     inkscape:window-y="-6"
     inkscape:window-maximized="1"
     inkscape:current-layer="svg4" />
  <path
     stroke="#000000"
     fill="none"
     stroke-width="4"
     d="m 124.38114,68.255403 h 800 V 668.2554 h -400 z m 400,0 200,599.999997 m -466.667,-400 h 666.667 m -533.333,200 h 533.333"
     id="path2" />
  <g
     aria-label="前"
     id="text20230"
     style="font-size:40px;line-height:1.25;font-family:'Noto Serif SC', serif;-inkscape-font-specification:'Noto Serif SC'">
    <path
       d="m 107.85965,44.55511 v -5.08 h 7.72 v 5.08 z m 7.72,-11.12 v 4.84 h -7.72 v -4.84 z m -0.4,-1.2 h -7.12 l -2.76,-1.24 v 25.08 h 0.44 c 1.12,0 2.12,-0.64 2.12,-0.92 v -9.4 h 7.72 v 6.52 c 0,0.52 -0.16,0.76 -0.72,0.76 -0.72,0 -3.6,-0.24 -3.6,-0.24 v 0.64 c 1.36,0.16 2.12,0.48 2.56,0.88 0.44,0.36 0.64,1 0.68,1.76 3.24,-0.32 3.64,-1.52 3.64,-3.56 v -18.6 c 0.76,-0.12 1.44,-0.48 1.72,-0.76 l -3.36,-2.52 z m 8.4,-0.56 v 18.44 h 0.48 c 0.92,0 2,-0.56 2,-0.88 v -16 c 1,-0.16 1.4,-0.56 1.48,-1.12 z m 8.56,20.52 c 0,0.6 -0.2,0.84 -0.92,0.84 -0.88,0 -5,-0.32 -5,-0.32 v 0.64 c 1.8,0.2 2.8,0.52 3.4,0.96 0.56,0.36 0.8,1 0.92,1.72 3.68,-0.32 4.16,-1.6 4.16,-3.68 v -20.12 c 0.92,-0.12 1.28,-0.48 1.4,-1 l -3.96,-0.44 z m 0.64,-25.24 h -8.68 c 1.96,-1.72 4.04,-3.84 5.28,-5.52 0.92,0.04 1.4,-0.28 1.6,-0.72 l -4.24,-1.24 c -0.92,2.2 -2.48,5.24 -3.88,7.48 h -7.88 c 2.08,-0.12 2.52,-5 -5,-7.4 l -0.44,0.32 c 1.8,1.6 3.84,4.4 4.24,6.68 0.36,0.24 0.72,0.4 1.04,0.4 h -13.16 l 0.32,1.16 h 35.44 c 0.56,0 0.88,-0.16 1,-0.6 -1.36,-1.32 -3.6,-3.04 -3.6,-3.04 z"
       id="path26" />
  </g>
  <g
     aria-label="央"
     id="text24524"
     style="font-size:40px;line-height:1.25;font-family:'Noto Serif SC', serif;-inkscape-font-specification:'Noto Serif SC'">
    <path
       d="m 529.93609,27.684485 v 11.64 h -9.4 c 0.72,-3.36 0.92,-7.24 0.96,-11.64 z m -19.96,11.64 v -11.64 h 8.8 c 0,4.44 -0.16,8.28 -0.92,11.64 z m 27.96,1.2 c 0.52,0 0.88,-0.2 1,-0.64 -1.16,-1.4 -3.36,-3.44 -3.36,-3.44 l -1.84,2.88 h -1.2 v -11.16 c 0.8,-0.16 1.44,-0.48 1.72,-0.8 l -3.2,-2.48 -1.52,1.64 h -8 l 0.04,-5.72 c 0.92,-0.16 1.28,-0.56 1.4,-1.16 l -4.2,-0.44 c 0,2.6 0.04,5.04 0.04,7.32 h -8.32 l -3.08,-1.32 v 14.12 h -5.6 l 0.28,1.2 h 15.48 c -1.72,6.48 -5.88,11.04 -15.68,14.4 l 0.32,0.76 c 11.6,-3.28 16.2,-8.12 18.04,-15.16 h 0.8 c 1.4,5.04 4.88,11.24 15,15.16 0.32,-1.52 1.24,-2 2.64,-2.16 l 0.08,-0.48 c -10.56,-3.2 -15.04,-8.04 -16.84,-12.52 z"
       id="path29" />
  </g>
  <g
     aria-label="后"
     id="text28740"
     style="font-size:40px;line-height:1.25;font-family:'Noto Serif SC', serif;-inkscape-font-specification:'Noto Serif SC'">
    <path
       d="m 916.43912,50.267922 v -11.08 h 15.72 v 11.08 z m 15.6,-12.24 h -15.12 l -3,-1.28 v 18.08 h 0.4 c 1.32,0 2.12,-0.64 2.12,-0.84 v -2.56 h 15.72 v 3 h 0.4 c 1.2,0 2.2,-0.6 2.2,-0.76 v -14.28 c 0.84,-0.16 1.24,-0.36 1.48,-0.68 l -2.92,-2.24 z m 1.76,-8.04 h -23.28 v -6.08 c 7.96,-0.52 16.72,-1.84 22.56,-3.08 1.04,0.4 1.72,0.4 2.12,0.04 l -3,-2.8 c -4.72,1.68 -13.36,3.72 -20.84,4.88 l -3.44,-1.16 v 11.4 c 0,7.16 -0.6,14.72 -5.24,20.8 l 0.52,0.44 c 6.72,-5.84 7.32,-14.48 7.32,-21.24 v -2.08 h 28 c 0.56,0 0.92,-0.2 1.04,-0.64 -1.4,-1.28 -3.72,-3.04 -3.72,-3.04 z"
       id="path32" />
  </g>
  <g
     aria-label="闭"
     id="text35434"
     style="font-size:40px;line-height:1.25;font-family:'Noto Serif SC', serif;-inkscape-font-specification:'Noto Serif SC'">
    <path
       d="m 61.64983,49.03474 c 1.52,1.4 3.4,3.92 4.08,5.76 2.64,1.72 4.56,-3.6 -3.64,-6.08 z m -2.68,36.6 h 0.48 c 0.92,0 2,-0.6 2,-0.96 v -28.92 c 1.04,-0.16 1.36,-0.52 1.48,-1.12 l -3.96,-0.44 z m 26.52,-22.12 c 0.52,0 0.92,-0.2 1.04,-0.64 -1.2,-1.24 -3.16,-2.92 -3.16,-2.92 l -1.76,2.36 h -2.24 v -5.56 c 0.96,-0.12 1.32,-0.48 1.44,-1.04 l -4,-0.44 v 7.04 h -12.4 l 0.32,1.2 h 10.52 c -2.36,5.76 -6.56,11.32 -11.84,15.2 l 0.48,0.6 c 5.6,-3.28 10,-7.72 12.92,-12.92 v 12.32 c 0,0.64 -0.2,0.88 -1.04,0.88 -0.88,0 -5.52,-0.32 -5.52,-0.32 v 0.6 c 1.96,0.24 3.12,0.6 3.8,0.96 0.56,0.36 0.84,0.96 0.92,1.68 3.92,-0.36 4.4,-1.6 4.4,-3.68 v -15.32 z m 4.04,-13.08 -1.32,1.64 h -17.72 l 0.36,1.16 h 17.76 v 28.12 c 0,0.68 -0.24,0.96 -1.08,0.96 -0.88,0 -5.52,-0.36 -5.52,-0.36 v 0.64 c 2,0.28 3.12,0.64 3.8,1.08 0.6,0.36 0.88,1.04 1,1.84 3.84,-0.4 4.28,-1.72 4.28,-3.84 v -27.96 c 0.8,-0.12 1.48,-0.48 1.72,-0.8 z"
       id="path35" />
  </g>
  <g
     aria-label="中"
     id="text39332"
     style="font-size:40px;line-height:1.25;font-family:'Noto Serif SC', serif;-inkscape-font-specification:'Noto Serif SC'">
    <path
       d="m 281.12142,374.41927 v -10.56 h 11.64 v 10.56 z m -14.32,0 v -10.56 h 11.64 v 10.56 z m 27.08,-13.4 -1.52,1.68 h -11.24 v -6.84 c 1.04,-0.16 1.36,-0.56 1.44,-1.12 l -4.12,-0.48 v 8.44 h -11.36 l -2.88,-1.36 v 18.04 h 0.4 c 1.12,0 2.2,-0.6 2.2,-0.88 v -2.88 h 11.64 v 15.32 h 0.52 c 1,0 2.16,-0.68 2.16,-1.08 v -14.24 h 11.64 v 3.32 h 0.44 c 0.88,0 2.24,-0.6 2.28,-0.84 v -13.72 c 0.8,-0.16 1.44,-0.48 1.68,-0.8 z"
       id="path48" />
  </g>
  <g
     aria-label="开"
     id="text41382"
     style="font-size:40px;line-height:1.25;font-family:'Noto Serif SC', serif;-inkscape-font-specification:'Noto Serif SC'">
    <path
       d="m 476.96252,662.73134 v -0.84 -11.48 h 10.04 v 12.32 z m 18.72,0 h -6 v -12.32 h 8.08 c 0.52,0 0.88,-0.2 1,-0.64 -1.28,-1.24 -3.4,-2.88 -3.4,-2.88 l -1.84,2.32 h -28.32 l 0.36,1.2 h 8.72 v 11.56 0.76 h -10.68 l 0.36,1.16 h 10.28 c -0.28,7.16 -2.24,13.12 -10.6,17.96 l 0.44,0.52 c 10.32,-4.24 12.52,-11.08 12.84,-18.48 h 10.08 v 18.48 h 0.44 c 1.36,0 2.24,-0.64 2.24,-0.88 v -17.6 h 10.2 c 0.56,0 0.96,-0.2 1.08,-0.64 -1.32,-1.24 -3.4,-3 -3.4,-3 z"
       id="path61" />
  </g>
  <g
     aria-label="半开"
     id="text48118"
     style="font-size:40px;line-height:1.25;font-family:'Noto Serif SC', serif;-inkscape-font-specification:'Noto Serif SC'">
    <path
       d="m 319.20157,447.68072 c -1.52,3.88 -3.64,7.92 -5.4,10.48 l 0.6,0.36 c 2.48,-2.04 5.2,-5.2 7.28,-8.44 0.88,0.12 1.4,-0.2 1.6,-0.64 z m -24.16,0.72 c 2.04,2.4 4.44,6.24 4.84,9.24 2.92,2.4 5.28,-4.4 -4.36,-9.52 z m 26.2,20.72 h -11.16 v -8.08 h 13.76 c 0.56,0 1,-0.2 1.12,-0.64 -1.44,-1.32 -3.76,-3.04 -3.76,-3.04 l -2,2.52 h -9.12 v -11.84 c 1,-0.16 1.28,-0.56 1.4,-1.12 l -4.12,-0.48 v 13.44 h -14.36 l 0.36,1.16 h 14 v 8.08 h -16.88 l 0.32,1.16 h 16.56 v 12.84 h 0.52 c 1.04,0 2.2,-0.72 2.2,-1.12 v -11.72 h 16.16 c 0.56,0 0.92,-0.2 1.04,-0.64 -1.48,-1.36 -3.88,-3.16 -3.88,-3.16 z"
       id="path51" />
    <path
       d="m 343.68157,463.32072 v -0.84 -11.48 h 10.04 v 12.32 z m 18.72,0 h -6 v -12.32 h 8.08 c 0.52,0 0.88,-0.2 1,-0.64 -1.28,-1.24 -3.4,-2.88 -3.4,-2.88 l -1.84,2.32 h -28.32 l 0.36,1.2 h 8.72 v 11.56 0.76 h -10.68 l 0.36,1.16 h 10.28 c -0.28,7.16 -2.24,13.12 -10.6,17.96 l 0.44,0.52 c 10.32,-4.24 12.52,-11.08 12.84,-18.48 h 10.08 v 18.48 h 0.44 c 1.36,0 2.24,-0.64 2.24,-0.88 v -17.6 h 10.2 c 0.56,0 0.96,-0.2 1.08,-0.64 -1.32,-1.24 -3.4,-3 -3.4,-3 z"
       id="path53" />
  </g>
  <g
     aria-label="次开"
     id="text50846"
     style="font-size:40px;line-height:1.25;font-family:'Noto Serif SC', serif;-inkscape-font-specification:'Noto Serif SC'">
    <path
       d="m 374.98485,575.50035 c 3.04,-2.48 5.64,-5.96 7.68,-10.2 h 14.48 c -0.6,2.72 -1.84,6.4 -3,8.84 l 0.56,0.32 c 2.08,-2.32 4.36,-5.96 5.52,-8.64 0.8,-0.04 1.28,-0.16 1.6,-0.44 l -3.08,-3 -1.8,1.76 h -13.72 c 0.84,-1.84 1.52,-3.84 2.16,-5.92 0.92,0 1.4,-0.36 1.52,-0.84 l -4.24,-1.2 c -1.44,7.6 -4.64,14.48 -8.2,18.92 z m -9.04,-16.88 c 1.88,1.52 4.16,4.24 4.84,6.44 2.92,1.92 4.84,-4.2 -4.48,-6.8 z m 10.4,4.84 c -7.64,13.68 -7.64,13.68 -8.48,15 -0.48,0.8 -0.68,0.8 -1.16,0.8 h -1.84 v 0.88 c 0.92,0.08 1.52,0.2 2.08,0.6 0.96,0.64 1.2,4.12 0.64,8.68 0.04,1.44 0.44,2.24 1.2,2.24 1.24,0 2.08,-1.04 2.16,-2.92 0.16,-3.64 -0.96,-5.76 -1,-7.6 0,-1.04 0.32,-2.2 0.76,-3.28 0.64,-1.68 4.4,-9.76 6.4,-14.16 z m 12.36,7.08 c 0.96,0.04 1.4,-0.32 1.56,-0.8 l -4.16,-1.12 c -0.36,9.24 -2.04,17.2 -15.2,23.76 l 0.44,0.76 c 12.76,-5.08 15.76,-11.64 16.88,-18.72 1.08,7.36 3.68,14.28 10.88,18.4 0.36,-1.6 1.2,-2.24 2.64,-2.44 l 0.12,-0.48 c -9.2,-4.16 -12.24,-10.88 -13.24,-18.76 z"
       id="path56" />
    <path
       d="m 417.94485,573.34035 v -0.84 -11.48 h 10.04 v 12.32 z m 18.72,0 h -6 v -12.32 h 8.08 c 0.52,0 0.88,-0.2 1,-0.64 -1.28,-1.24 -3.4,-2.88 -3.4,-2.88 l -1.84,2.32 h -28.32 l 0.36,1.2 h 8.72 v 11.56 0.76 h -10.68 l 0.36,1.16 h 10.28 c -0.28,7.16 -2.24,13.12 -10.6,17.96 l 0.44,0.52 c 10.32,-4.24 12.52,-11.08 12.84,-18.48 h 10.08 v 18.48 h 0.44 c 1.36,0 2.24,-0.64 2.24,-0.88 v -17.6 h 10.2 c 0.56,0 0.96,-0.2 1.08,-0.64 -1.32,-1.24 -3.4,-3 -3.4,-3 z"
       id="path58" />
  </g>
  <g
     aria-label="半闭"
     id="text53028"
     style="font-size:40px;line-height:1.25;font-family:'Noto Serif SC', serif;-inkscape-font-specification:'Noto Serif SC'">
    <path
       d="m 189.92849,251.0206 c -1.52,3.88 -3.64,7.92 -5.4,10.48 l 0.6,0.36 c 2.48,-2.04 5.2,-5.2 7.28,-8.44 0.88,0.12 1.4,-0.2 1.6,-0.64 z m -24.16,0.72 c 2.04,2.4 4.44,6.24 4.84,9.24 2.92,2.4 5.28,-4.4 -4.36,-9.52 z m 26.2,20.72 h -11.16 v -8.08 h 13.76 c 0.56,0 1,-0.2 1.12,-0.64 -1.44,-1.32 -3.76,-3.04 -3.76,-3.04 l -2,2.52 h -9.12 v -11.84 c 1,-0.16 1.28,-0.56 1.4,-1.12 l -4.12,-0.48 v 13.44 h -14.36 l 0.36,1.16 h 14 v 8.08 h -16.88 l 0.32,1.16 h 16.56 v 12.84 h 0.52 c 1.04,0 2.2,-0.72 2.2,-1.12 v -11.72 h 16.16 c 0.56,0 0.92,-0.2 1.04,-0.64 -1.48,-1.36 -3.88,-3.16 -3.88,-3.16 z"
       id="path43" />
    <path
       d="m 206.16849,249.8206 c 1.52,1.4 3.4,3.92 4.08,5.76 2.64,1.72 4.56,-3.6 -3.64,-6.08 z m -2.68,36.6 h 0.48 c 0.92,0 2,-0.6 2,-0.96 v -28.92 c 1.04,-0.16 1.36,-0.52 1.48,-1.12 l -3.96,-0.44 z m 26.52,-22.12 c 0.52,0 0.92,-0.2 1.04,-0.64 -1.2,-1.24 -3.16,-2.92 -3.16,-2.92 l -1.76,2.36 h -2.24 v -5.56 c 0.96,-0.12 1.32,-0.48 1.44,-1.04 l -4,-0.44 v 7.04 h -12.4 l 0.32,1.2 h 10.52 c -2.36,5.76 -6.56,11.32 -11.84,15.2 l 0.48,0.6 c 5.6,-3.28 10,-7.72 12.92,-12.92 v 12.32 c 0,0.64 -0.2,0.88 -1.04,0.88 -0.88,0 -5.52,-0.32 -5.52,-0.32 v 0.6 c 1.96,0.24 3.12,0.6 3.8,0.96 0.56,0.36 0.84,0.96 0.92,1.68 3.92,-0.36 4.4,-1.6 4.4,-3.68 v -15.32 z m 4.04,-13.08 -1.32,1.64 h -17.72 l 0.36,1.16 h 17.76 v 28.12 c 0,0.68 -0.24,0.96 -1.08,0.96 -0.88,0 -5.52,-0.36 -5.52,-0.36 v 0.64 c 2,0.28 3.12,0.64 3.8,1.08 0.6,0.36 0.88,1.04 1,1.84 3.84,-0.4 4.28,-1.72 4.28,-3.84 v -27.96 c 0.8,-0.12 1.48,-0.48 1.72,-0.8 z"
       id="path45" />
  </g>
  <g
     aria-label="次闭"
     id="text54406"
     style="font-size:40px;line-height:1.25;font-family:'Noto Serif SC', serif;-inkscape-font-specification:'Noto Serif SC'">
    <path
       d="m 106.81194,178.05439 c 3.04,-2.48 5.64,-5.96 7.68,-10.2 h 14.48 c -0.6,2.72 -1.84,6.4 -3,8.84 l 0.56,0.32 c 2.08,-2.32 4.36,-5.96 5.52,-8.64 0.8,-0.04 1.28,-0.16 1.6,-0.44 l -3.08,-3 -1.8,1.76 h -13.72 c 0.84,-1.84 1.52,-3.84 2.16,-5.92 0.92,0 1.4,-0.36 1.52,-0.84 l -4.24,-1.2 c -1.44,7.6 -4.64,14.48 -8.2,18.92 z m -9.039995,-16.88 c 1.88,1.52 4.159995,4.24 4.839995,6.44 2.92,1.92 4.84,-4.2 -4.479995,-6.8 z m 10.399995,4.84 c -7.64,13.68 -7.64,13.68 -8.479995,15 -0.48,0.8 -0.68,0.8 -1.16,0.8 h -1.84 v 0.88 c 0.92,0.08 1.52,0.2 2.08,0.6 0.96,0.64 1.2,4.12 0.64,8.68 0.04,1.44 0.44,2.24 1.199995,2.24 1.24,0 2.08,-1.04 2.16,-2.92 0.16,-3.64 -0.96,-5.76 -1,-7.6 0,-1.04 0.32,-2.2 0.76,-3.28 0.64,-1.68 4.4,-9.76 6.4,-14.16 z m 12.36,7.08 c 0.96,0.04 1.4,-0.32 1.56,-0.8 l -4.16,-1.12 c -0.36,9.24 -2.04,17.2 -15.2,23.76 l 0.44,0.76 c 12.76,-5.08 15.76,-11.64 16.88,-18.72 1.08,7.36 3.68,14.28 10.88,18.4 0.36,-1.6 1.2,-2.24 2.64,-2.44 l 0.12,-0.48 c -9.2,-4.16 -12.24,-10.88 -13.24,-18.76 z"
       id="path38" />
    <path
       d="m 141.53194,159.05439 c 1.52,1.4 3.4,3.92 4.08,5.76 2.64,1.72 4.56,-3.6 -3.64,-6.08 z m -2.68,36.6 h 0.48 c 0.92,0 2,-0.6 2,-0.96 v -28.92 c 1.04,-0.16 1.36,-0.52 1.48,-1.12 l -3.96,-0.44 z m 26.52,-22.12 c 0.52,0 0.92,-0.2 1.04,-0.64 -1.2,-1.24 -3.16,-2.92 -3.16,-2.92 l -1.76,2.36 h -2.24 v -5.56 c 0.96,-0.12 1.32,-0.48 1.44,-1.04 l -4,-0.44 v 7.04 h -12.4 l 0.32,1.2 h 10.52 c -2.36,5.76 -6.56,11.32 -11.84,15.2 l 0.48,0.6 c 5.6,-3.28 10,-7.72 12.92,-12.92 v 12.32 c 0,0.64 -0.2,0.88 -1.04,0.88 -0.88,0 -5.52,-0.32 -5.52,-0.32 v 0.6 c 1.96,0.24 3.12,0.6 3.8,0.96 0.56,0.36 0.84,0.96 0.92,1.68 3.92,-0.36 4.4,-1.6 4.4,-3.68 v -15.32 z m 4.04,-13.08 -1.32,1.64 h -17.72 l 0.36,1.16 h 17.76 v 28.12 c 0,0.68 -0.24,0.96 -1.08,0.96 -0.88,0 -5.52,-0.36 -5.52,-0.36 v 0.64 c 2,0.28 3.12,0.64 3.8,1.08 0.6,0.36 0.88,1.04 1,1.84 3.84,-0.4 4.28,-1.72 4.28,-3.84 v -27.96 c 0.8,-0.12 1.48,-0.48 1.72,-0.8 z"
       id="path40" />
  </g>
</svg>
